<svg width="40" height="40" viewBox="0 0 40 40" fill="none" xmlns="http://www.w3.org/2000/svg">
<path d="M15.8026 6.66798C17.1886 6.66798 18.4154 7.3563 19.1659 8.41286C19.9164 7.35568 21.1436 6.66687 22.5301 6.66687C24.8145 6.66687 26.6663 8.53661 26.6663 10.843C26.6663 12.018 26.1857 13.0797 25.4121 13.8386L25.4189 13.8401L19.1659 20.0002L12.9128 13.8401L12.9195 13.8386C12.1465 13.0798 11.6663 12.0186 11.6663 10.8441C11.6663 8.53771 13.5182 6.66798 15.8026 6.66798Z" fill="white"/>
<path d="M26.1197 22.163L19.6038 21.6707C18.8047 21.6103 18.1242 22.2629 18.1242 23.0895C18.1241 23.7219 18.5288 24.2785 19.1174 24.4554L23.3873 25.7387C18.2468 26.1274 13.3984 25.2151 10.9081 24.619C10.0355 24.4101 9.1665 25.0877 9.1665 26.0118C9.1665 26.4873 9.39967 26.9252 9.80056 27.1596C12.1986 28.5621 21.0742 33.3334 30.8332 33.3334L30.8332 29.3992L30.8329 29.3195L30.8329 27.3949C30.8329 24.6465 28.7766 22.3637 26.1197 22.163Z" fill="white"/>
</svg>
