<svg xmlns="http://www.w3.org/2000/svg" id="Layer_1" x="0" y="0" version="1.1" viewBox="0 0 87 89" xml:space="preserve"><style>.st0{fill:none;stroke:#223446;stroke-width:2;stroke-linecap:round;stroke-linejoin:round}</style><circle cx="44" cy="79" r="5" class="st0"/><path d="M78.4 36.9c4.1 0 7.3 3.3 7.3 7.3 0 4.1-3.3 7.3-7.3 7.3" class="st0"/><path d="M8.3 36.9c-4.1 0-7.3 3.3-7.3 7.3 0 3.3 2.2 6.1 5.1 6.9.7.2 1.4.3 2.2.3H9c-.6-2.3-.8-4.7-.8-7.3C8.3 24.8 24 9 43.4 9s35.1 15.8 35.1 35.1c0 17.5-12.8 32-29.6 34.7" class="st0"/><path d="M55.6 53.8V32.2L45 48.1h14.1M27.9 37.3c0-3 2.6-5.3 5.9-5.3s6 2.4 6 5.3c0 2.2-1 3.7-2.2 5.2l-10 11.7h12.8" class="st0"/></svg>