<svg width="64" height="64" viewBox="0 0 64 64" fill="none" xmlns="http://www.w3.org/2000/svg">
<path d="M1.04038 16.421C2.20457 8.28708 8.28708 2.20456 16.421 1.04038C20.5731 0.446119 25.7661 0 32 0C38.2339 0 43.4269 0.446119 47.579 1.04038C55.7129 2.20456 61.7954 8.28708 62.9596 16.421C63.5539 20.5731 64 25.7661 64 32C64 38.2339 63.5539 43.4269 62.9596 47.579C61.7954 55.7129 55.7129 61.7954 47.579 62.9596C43.4269 63.5539 38.2339 64 32 64C25.7661 64 20.5731 63.5539 16.421 62.9596C8.28708 61.7954 2.20456 55.7129 1.04038 47.579C0.446119 43.4269 0 38.2339 0 32C0 25.7661 0.446119 20.5731 1.04038 16.421Z" fill="white" fill-opacity="0.1"/>
<g clip-path="url(#clip0_3164_39100)">
<path fill-rule="evenodd" clip-rule="evenodd" d="M33.2959 37.9947C33.2959 36.2975 35.6663 36.0278 36.0208 37.8465C36.0786 38.1433 36.2147 38.4304 36.465 38.6C37.3526 39.2018 38.3486 39.8224 39.3609 40.145C40.0908 40.4417 40.9272 40.6505 41.6701 40.5635C41.7021 40.5597 41.7332 40.5542 41.7635 40.5472C42.7405 40.3864 43.4858 39.538 43.4858 38.5155C43.4858 38.1611 43.3963 37.8277 43.2387 37.5366C43.1117 37.313 42.9622 37.1039 42.8217 36.8889C42.7144 36.7248 42.5039 36.6626 42.3246 36.7421C42.0212 36.8768 41.7178 37.0097 41.416 37.1419C40.9812 37.3324 40.5485 37.5219 40.1246 37.7127C39.9019 37.8129 39.6953 37.9058 39.4558 37.9172C39.304 37.9243 39.139 37.8989 38.9484 37.8217C38.5128 37.6001 38.1823 37.2042 38.1823 36.6607V33.9918C46.6522 34.6592 48.7894 24.6516 44.5545 19.6477L39.7709 24.8158C39.2764 25.35 39.057 26.0749 38.8888 26.7831C38.7161 27.5106 38.282 28.3209 37.205 28.3209C35.5762 28.3209 35.2505 26.8201 35.2505 24.985C35.2505 21.4839 38.0195 21.8166 39.1596 22.3169C39.974 20.8158 38.7184 19.8886 37.6704 19.4639C34.9247 18.6475 32.3332 21.8165 32.0075 24.6518C31.6817 21.8165 29.0756 18.6475 26.3299 19.4639C25.2819 19.8886 24.0263 20.8158 24.8407 22.3169C25.9809 21.8166 28.7499 21.4839 28.7499 24.985C28.7499 26.8201 28.4241 28.3209 26.7953 28.3209C25.7183 28.3209 25.2842 27.5106 25.1115 26.7831C24.9434 26.0749 24.7239 25.35 24.2295 24.8158L19.4458 19.6477C15.2109 24.6516 17.3481 34.6592 25.818 33.9918V36.6662C25.8158 37.2065 25.4867 37.6003 25.053 37.8212C24.8619 37.8988 24.6966 37.9244 24.5446 37.9172C24.305 37.9058 24.0984 37.8129 23.8757 37.7127C23.4517 37.5219 23.0201 37.3328 22.5851 37.1422C22.2831 37.0099 21.9794 36.8769 21.6757 36.7421C21.4964 36.6626 21.2859 36.7248 21.1786 36.8889C21.0381 37.1039 20.8886 37.313 20.7616 37.5366C20.604 37.8277 20.5145 38.1611 20.5145 38.5155C20.5145 39.538 21.2598 40.3864 22.2368 40.5472C22.2671 40.5542 22.2982 40.5597 22.3302 40.5635C23.0731 40.6505 23.9095 40.4417 24.6394 40.145C25.6517 39.8224 26.6477 39.2018 27.5353 38.6C27.7833 38.4319 27.9258 38.148 27.9845 37.8542C28.339 36.0355 30.7044 36.2975 30.7044 37.9947C30.7044 38.6619 30.3787 39.1626 29.5643 39.8298L27.3945 41.311C26.731 41.764 26.6115 42.7091 27.2546 43.1906C28.6768 44.2554 30.3303 44.6667 31.9928 44.6667C33.6558 44.6667 35.3188 44.2552 36.745 43.1898C37.3887 42.709 37.2693 41.764 36.6058 41.311L34.4361 39.8298C33.6217 39.1626 33.2959 38.6619 33.2959 37.9947ZM30.3819 29.0219C29.9833 29.0219 29.6602 29.3901 29.6602 29.8444V33.1122C29.6602 33.795 32.0002 34.6642 32.0002 34.6642C32.0002 34.6642 34.3402 33.795 34.3402 33.1122V29.8444C34.3402 29.3901 34.017 29.0219 33.6184 29.0219H30.3819Z" fill="white"/>
</g>
<defs>
<clipPath id="clip0_3164_39100">
<rect width="32" height="32" fill="white" transform="translate(16 16)"/>
</clipPath>
</defs>
</svg>
