<svg width="48" height="48" viewBox="0 0 48 48" fill="none" xmlns="http://www.w3.org/2000/svg">
<g clip-path="url(#clip0_78_26801)">
<path fill-rule="evenodd" clip-rule="evenodd" d="M23.04 48C12.1788 48 6.74827 48 3.37414 44.6258C8.58307e-07 41.2517 5.63858e-07 35.8211 8.50112e-08 24.9599L3.60757e-10 23.0399C-4.78485e-07 12.1787 -8.58307e-07 6.74806 3.37413 3.37393C6.74827 8.58307e-07 12.1788 5.54272e-07 23.04 8.35716e-08L24.96 3.51496e-10C35.8212 -4.70348e-07 41.2517 -5.72205e-07 44.6258 3.37393C48 6.74805 48 12.1787 48 23.0399V24.9599C48 35.8211 48 41.2517 44.6258 44.6258C41.2517 48 35.8212 48 24.96 48H23.04Z" fill="#2B71F6"/>
<path d="M27.7561 29.5813C26.4629 29.2583 25.5562 28.1015 25.5562 26.7746V11.143C25.5562 9.63601 26.9802 8.53072 28.4491 8.89766L37.7513 11.2214C39.0445 11.5445 39.9514 12.7013 39.9514 14.0281V29.6597C39.9514 31.1668 38.5273 32.2721 37.0584 31.9051L27.7561 29.5813Z" fill="white"/>
<path d="M10.2474 36.7793C8.95416 36.4562 8.04736 35.2994 8.04736 33.9726V18.341C8.04736 16.834 9.47141 15.7286 10.9403 16.0956L20.2426 18.4194C21.5358 18.7424 22.4425 19.8992 22.4425 21.2261V36.8576C22.4425 38.3647 21.0185 39.47 19.5496 39.1031L10.2474 36.7793Z" fill="white"/>
<path d="M19.0022 33.1799C17.709 32.8569 16.8022 31.7001 16.8022 30.3732V14.7417C16.8022 13.2346 18.2263 12.1293 19.6952 12.4962L28.9974 14.82C30.2906 15.1431 31.1974 16.2999 31.1974 17.6267V33.2583C31.1974 34.7654 29.7734 35.8706 28.3045 35.5037L19.0022 33.1799Z" fill="white"/>
<path d="M25.0899 34.705C24.6825 34.6012 24.3926 34.2409 24.3783 33.8209L23.9737 21.8831C23.8565 20.3032 22.6838 19.0466 21.4582 18.6766C21.3893 18.6558 21.3159 18.6838 21.2752 18.7429C21.2337 18.8032 21.2498 18.8864 21.3075 18.9311C21.6101 19.1653 22.4432 19.93 22.4432 21.2486L22.4407 34.0336L25.0899 34.705Z" fill="#2B71F6"/>
<path d="M33.8463 31.1027C33.4393 31.0009 33.149 30.6417 33.1348 30.2224L32.7301 18.2855C32.6129 16.7055 31.4402 15.449 30.2145 15.0789C30.1457 15.0581 30.0723 15.0861 30.0315 15.1454C29.9901 15.2055 30.0061 15.2888 30.0639 15.3335C30.3665 15.5678 31.1995 16.3323 31.1995 17.6511L31.1971 30.4403L33.8463 31.1027Z" fill="#2B71F6"/>
</g>
<defs>
<clipPath id="clip0_78_26801">
<rect width="48" height="48" fill="white"/>
</clipPath>
</defs>
</svg>
