<svg width="40" height="40" viewBox="0 0 40 40" fill="none" xmlns="http://www.w3.org/2000/svg">
<path fill-rule="evenodd" clip-rule="evenodd" d="M14.3333 9.44448C14.3333 7.91031 15.6018 6.66663 17.1666 6.66662L22.8333 6.66662C24.3981 6.66662 25.6666 7.91031 25.6666 9.44448L25.6666 12.2217L31.3333 12.2217C32.8981 12.2217 34.1666 13.4653 34.1666 14.9995L34.1666 17.7774L5.83325 17.7774L5.83325 14.9995C5.83325 13.4653 7.10178 12.2217 8.66659 12.2217L14.3333 12.2217L14.3333 9.44448ZM22.8333 9.44448L22.8333 12.2217L17.1666 12.2217L17.1666 9.44448L22.8333 9.44448Z" fill="white"/>
<path fill-rule="evenodd" clip-rule="evenodd" d="M34.1666 20.5552L5.83325 20.5552L5.83325 28.8888C5.83325 30.4229 7.10178 31.6666 8.66659 31.6666L31.3333 31.6666C32.8981 31.6666 34.1666 30.4229 34.1666 28.8888L34.1666 20.5552ZM22.8333 20.5559C22.8333 22.0901 21.5647 23.3337 19.9999 23.3337C18.4351 23.3337 17.1666 22.0901 17.1666 20.5559L22.8333 20.5559Z" fill="white"/>
</svg>
