<svg width="40" height="40" viewBox="0 0 40 40" fill="none" xmlns="http://www.w3.org/2000/svg">
<path d="M19.9998 20.8329C20.9202 20.8329 21.6664 20.0867 21.6664 19.1663C21.6664 18.2458 20.9202 17.4996 19.9998 17.4996C19.0793 17.4996 18.3331 18.2458 18.3331 19.1663C18.3331 20.0867 19.0793 20.8329 19.9998 20.8329Z" fill="white"/>
<path fill-rule="evenodd" clip-rule="evenodd" d="M8.33317 8.33301C7.4127 8.33301 6.6665 9.0792 6.6665 9.99967V28.333C6.6665 29.2535 7.4127 29.9997 8.33317 29.9997H9.99984V31.6663C9.99984 32.1266 10.3729 32.4997 10.8332 32.4997H14.1665C14.6267 32.4997 14.9998 32.1266 14.9998 31.6663V29.9997H24.9998V31.6663C24.9998 32.1266 25.3729 32.4997 25.8332 32.4997H29.1665C29.6267 32.4997 29.9998 32.1266 29.9998 31.6663V29.9997H31.6665C32.587 29.9997 33.3332 29.2535 33.3332 28.333V9.99967C33.3332 9.0792 32.587 8.33301 31.6665 8.33301H8.33317ZM19.1664 13.392C18.1782 13.5334 17.2698 13.9224 16.5062 14.4943L17.6427 15.6308C17.9681 15.9562 17.9681 16.4838 17.6427 16.8093C17.3173 17.1347 16.7896 17.1347 16.4642 16.8093L15.3277 15.6728C14.7559 16.4364 14.3669 17.3447 14.2255 18.3329H15.8331C16.2933 18.3329 16.6664 18.706 16.6664 19.1663C16.6664 19.6265 16.2933 19.9996 15.8331 19.9996H14.2255C14.3669 20.9878 14.7559 21.8962 15.3277 22.6597L16.4641 21.5233C16.7896 21.1979 17.3172 21.1979 17.6426 21.5233C17.9681 21.8487 17.9681 22.3764 17.6426 22.7018L16.5062 23.8382C17.2698 24.4101 18.1782 24.7992 19.1664 24.9405V23.3329C19.1664 22.8727 19.5395 22.4996 19.9998 22.4996C20.46 22.4996 20.8331 22.8727 20.8331 23.3329V24.9405C21.8213 24.7992 22.7297 24.4101 23.4932 23.8383L22.3568 22.7019C22.0314 22.3765 22.0314 21.8488 22.3568 21.5234C22.6822 21.1979 23.2099 21.1979 23.5353 21.5234L24.6717 22.6598C25.2436 21.8962 25.6327 20.9879 25.774 19.9996H24.1664C23.7062 19.9996 23.3331 19.6265 23.3331 19.1663C23.3331 18.706 23.7062 18.3329 24.1664 18.3329H25.774C25.6327 17.3447 25.2436 16.4363 24.6717 15.6727L23.5353 16.8092C23.2098 17.1346 22.6822 17.1346 22.3568 16.8092C22.0313 16.4838 22.0313 15.9561 22.3568 15.6307L23.4932 14.4942C22.7297 13.9224 21.8213 13.5334 20.8331 13.392V14.9996C20.8331 15.4598 20.46 15.8329 19.9998 15.8329C19.5395 15.8329 19.1664 15.4598 19.1664 14.9996V13.392ZM11.6665 19.1663L9.1665 21.6663V16.6663L11.6665 19.1663Z" fill="white"/>
</svg>
