<svg width="20" height="20" viewBox="0 0 20 20" fill="none" xmlns="http://www.w3.org/2000/svg">
<g clip-path="url(#clip0_14458_54263)">
<path d="M30 0H0V20H30V0Z" fill="#DE2910"/>
<path d="M6.29831 7.229L8.06165 5.94767H5.88165L5.20831 3.875L4.53498 5.94767H2.35498L4.11831 7.229L3.44498 9.30233L5.20831 8.021L6.97165 9.30233L6.29831 7.229Z" fill="#FFDE00"/>
<path d="M9.35101 4.38968L10.5997 2.95502L10.4323 4.84968L9.45435 3.21835L11.2043 3.96302L9.35101 4.38968Z" fill="#FFDE00"/>
<path d="M11.2183 6.01631L12.9263 5.17897L12.037 6.86031L11.7677 4.97697L13.0923 6.34231L11.2183 6.01631Z" fill="#FFDE00"/>
<path d="M11.247 8.60031L13.1477 8.53231L11.6497 9.70431L12.1723 7.87564L12.825 9.66231L11.247 8.60031Z" fill="#FFDE00"/>
<path d="M9.42765 10.2503L11.207 10.9217L9.37299 11.4243L10.561 9.939L10.473 11.8397L9.42765 10.2503Z" fill="#FFDE00"/>
<g style="mix-blend-mode:difference">
<path fill-rule="evenodd" clip-rule="evenodd" d="M10 20C15.5229 20 20 15.5229 20 10C20 4.47715 15.5229 0 10 0C4.47715 0 0 4.47715 0 10C0 15.5229 4.47715 20 10 20ZM10 19.5833C15.2927 19.5833 19.5833 15.2927 19.5833 10C19.5833 4.70727 15.2927 0.416667 10 0.416667C4.70727 0.416667 0.416667 4.70727 0.416667 10C0.416667 15.2927 4.70727 19.5833 10 19.5833Z" fill="white" fill-opacity="0.03"/>
</g>
</g>
<defs>
<clipPath id="clip0_14458_54263">
<rect width="20" height="20" rx="10" fill="white"/>
</clipPath>
</defs>
</svg>
