<svg width="40" height="40" viewBox="0 0 40 40" fill="none" xmlns="http://www.w3.org/2000/svg">
<path fill-rule="evenodd" clip-rule="evenodd" d="M8 10C6.34314 10 5 11.2792 5 12.8571L5.00002 20H21.5V22.8571H5.00003V24.2857C5.00003 25.8637 6.34316 27.1429 8 27.1429C8 28.7209 9.34314 30 11 30C12.6569 30 14 28.7207 14 27.1429H26C26 28.7209 27.3431 30 29 30C30.6569 30 32 28.7207 32 27.1429C33.6569 27.1429 35 25.8637 35 24.2857V21.2053C35 20.4346 34.6839 19.6401 34.1045 19.1023L31.9788 17.1231L26.0534 11.698L25.0973 10.8108C24.537 10.2909 23.7858 10 23.0037 10H8ZM22.9907 12.8571L21.5 12.8571V17.1429H27.6717L22.9907 12.8571Z" fill="white"/>
</svg>
