<svg width="40" height="40" viewBox="0 0 40 40" fill="none" xmlns="http://www.w3.org/2000/svg">
<path d="M10.6548 14.9763L11.8128 14.9763L11.2608 13.3784L11.2392 13.3784L10.6548 14.9763Z" fill="white"/>
<path fill-rule="evenodd" clip-rule="evenodd" d="M20 10L10 10C8.15906 10 6.66667 11.4924 6.66667 13.3333L6.66667 26.6667C6.66667 28.5076 8.15906 30 10 30L30 30C31.841 30 33.3333 28.5076 33.3333 26.6667L33.3333 23.3333L28.2931 18.2931C28.3195 18.4402 28.3333 18.5931 28.3333 18.75C28.3333 19.9006 27.5871 20.8333 26.6667 20.8333C25.7462 20.8333 25 19.9006 25 18.75C25 18.5931 25.0139 18.4402 25.0402 18.2931C24.8932 18.3194 24.7403 18.3333 24.5833 18.3333C23.4327 18.3333 22.5 17.5871 22.5 16.6667C22.5 15.7462 23.4327 15 24.5833 15C24.7403 15 24.8932 15.0139 25.0402 15.0402L20 10ZM12.5641 20.8333L10 20.8333C9.53977 20.8333 9.16667 21.2064 9.16667 21.6667L9.16667 22.5C9.16667 22.9602 9.53977 23.3333 10 23.3333L12.5 23.3333C12.9602 23.3333 13.3333 22.9602 13.3333 22.5L13.3333 21.6026C13.3333 21.1777 12.9889 20.8333 12.5641 20.8333ZM9.16667 18.3333L9.16667 17.5368L13.3333 17.5368L13.3333 18.3333L9.16667 18.3333ZM12.0074 13.0834L13.2359 16.4548L12.3268 16.4548L12.0508 15.6533L10.4059 15.6533L10.1082 16.4548L9.25327 16.4548L10.5425 13.0834C10.6676 12.7564 10.8133 12.5 11.2825 12.5C11.7516 12.5 11.8886 12.7575 12.0074 13.0834Z" fill="white"/>
<path d="M22.037 10L25.8337 13.7967C25.8335 13.7812 25.8333 13.7656 25.8333 13.75C25.8333 12.5994 26.5795 11.6667 27.5 11.6667C28.4205 11.6667 29.1667 12.5994 29.1667 13.75C29.1667 13.9069 29.1528 14.0598 29.1265 14.2069C29.2735 14.1805 29.4264 14.1667 29.5833 14.1667C30.7339 14.1667 31.6667 14.9129 31.6667 15.8333C31.6667 16.7538 30.7339 17.5 29.5833 17.5C29.5677 17.5 29.5522 17.4999 29.5366 17.4996L33.3333 21.2963L33.3333 13.3333C33.3333 11.4924 31.841 10 30 10L22.037 10Z" fill="white"/>
</svg>
