<svg width="40" height="40" viewBox="0 0 40 40" fill="none" xmlns="http://www.w3.org/2000/svg">
<path d="M33.3333 13.3333C35.1743 13.3333 36.6667 11.8409 36.6667 9.99996C36.6667 8.15901 35.1743 6.66662 33.3333 6.66662C31.4924 6.66662 30 8.15901 30 9.99996C30 11.8409 31.4924 13.3333 33.3333 13.3333Z" fill="white"/>
<path d="M36.6537 13.3333C35.831 14.2322 34.648 14.796 33.3333 14.796C32.0187 14.796 30.8357 14.2322 30.013 13.3333C30.0044 13.4309 30 13.5296 30 13.6293C30 15.4703 31.4924 16.9627 33.3333 16.9627C35.1743 16.9627 36.6667 15.4703 36.6667 13.6293C36.6667 13.5296 36.6623 13.4308 36.6537 13.3333Z" fill="white"/>
<path d="M36.6537 16.9626C35.831 17.8616 34.648 18.4253 33.3333 18.4253C32.0187 18.4253 30.8357 17.8616 30.013 16.9627C30.0044 17.0602 30 17.1589 30 17.2587C30 19.0996 31.4924 20.592 33.3333 20.592C35.1743 20.592 36.6667 19.0996 36.6667 17.2587C36.6667 17.1589 36.6623 17.0602 36.6537 16.9626Z" fill="white"/>
<path d="M6.66667 15.8333L28.3333 15.8333L28.3333 9.16662C28.3333 8.70639 27.9602 8.33329 27.5 8.33329L26.6667 8.33329C26.2064 8.33329 25.8333 8.70639 25.8333 9.16662L25.8333 10.8333L14.1667 10.8333L14.1667 9.16663C14.1667 8.70639 13.7936 8.33329 13.3333 8.33329L12.5 8.33329C12.0398 8.33329 11.6667 8.70639 11.6667 9.16663L11.6667 10.8333L9.16667 10.8333C7.78596 10.8333 6.66667 11.9526 6.66667 13.3333L6.66667 15.8333Z" fill="white"/>
<path fill-rule="evenodd" clip-rule="evenodd" d="M33.3333 22.0833C31.08 22.0833 29.1748 20.6217 28.55 18.3333L6.66667 18.3333L6.66667 30.8333C6.66667 32.214 7.78596 33.3333 9.16667 33.3333L30.8333 33.3333C32.2141 33.3333 33.3333 32.214 33.3333 30.8333L33.3333 22.0833ZM13.3333 21.6666C12.8731 21.6666 12.5 22.0397 12.5 22.5L12.5 23.3333C12.5 23.7935 12.8731 24.1666 13.3333 24.1666L14.1667 24.1666C14.6269 24.1666 15 23.7935 15 23.3333L15 22.5C15 22.0397 14.6269 21.6666 14.1667 21.6666L13.3333 21.6666ZM13.3333 25.8333C12.8731 25.8333 12.5 26.2064 12.5 26.6666L12.5 27.5C12.5 27.9602 12.8731 28.3333 13.3333 28.3333L14.1667 28.3333C14.6269 28.3333 15 27.9602 15 27.5L15 26.6666C15 26.2064 14.6269 25.8333 14.1667 25.8333L13.3333 25.8333ZM17.5 21.6666C17.0398 21.6666 16.6667 22.0397 16.6667 22.5L16.6667 23.3333C16.6667 23.7935 17.0398 24.1666 17.5 24.1666L18.3333 24.1666C18.7936 24.1666 19.1667 23.7935 19.1667 23.3333L19.1667 22.5C19.1667 22.0397 18.7936 21.6666 18.3333 21.6666L17.5 21.6666ZM17.5 25.8333C17.0398 25.8333 16.6667 26.2064 16.6667 26.6666L16.6667 27.5C16.6667 27.9602 17.0398 28.3333 17.5 28.3333L18.3333 28.3333C18.7936 28.3333 19.1667 27.9602 19.1667 27.5L19.1667 26.6666C19.1667 26.2064 18.7936 25.8333 18.3333 25.8333L17.5 25.8333ZM21.6667 21.6666C21.2064 21.6666 20.8333 22.0397 20.8333 22.5L20.8333 23.3333C20.8333 23.7935 21.2064 24.1666 21.6667 24.1666L22.5 24.1666C22.9602 24.1666 23.3333 23.7935 23.3333 23.3333L23.3333 22.5C23.3333 22.0397 22.9602 21.6666 22.5 21.6666L21.6667 21.6666ZM21.6667 25.8333C21.2064 25.8333 20.8333 26.2064 20.8333 26.6666L20.8333 27.5C20.8333 27.9602 21.2064 28.3333 21.6667 28.3333L22.5 28.3333C22.9602 28.3333 23.3333 27.9602 23.3333 27.5L23.3333 26.6666C23.3333 26.2064 22.9602 25.8333 22.5 25.8333L21.6667 25.8333ZM25.8333 21.6666C25.3731 21.6666 25 22.0397 25 22.5L25 23.3333C25 23.7935 25.3731 24.1666 25.8333 24.1666L26.6667 24.1666C27.1269 24.1666 27.5 23.7935 27.5 23.3333L27.5 22.5C27.5 22.0397 27.1269 21.6666 26.6667 21.6666L25.8333 21.6666Z" fill="white"/>
</svg>
