<svg width="64" height="64" viewBox="0 0 64 64" fill="none" xmlns="http://www.w3.org/2000/svg">
<path d="M1.04038 16.421C2.20457 8.28708 8.28708 2.20456 16.421 1.04038C20.5731 0.446119 25.7661 0 32 0C38.2339 0 43.4269 0.446119 47.579 1.04038C55.7129 2.20456 61.7954 8.28708 62.9596 16.421C63.5539 20.5731 64 25.7661 64 32C64 38.2339 63.5539 43.4269 62.9596 47.579C61.7954 55.7129 55.7129 61.7954 47.579 62.9596C43.4269 63.5539 38.2339 64 32 64C25.7661 64 20.5731 63.5539 16.421 62.9596C8.28708 61.7954 2.20456 55.7129 1.04038 47.579C0.446119 43.4269 0 38.2339 0 32C0 25.7661 0.446119 20.5731 1.04038 16.421Z" fill="white" fill-opacity="0.1"/>
<g clip-path="url(#clip0_3164_39102)">
<path d="M18.6693 22.1373C18.6105 21.4406 19.479 21.0655 19.9577 21.5809L25.9199 27.9996L31.4594 20.2667C31.5945 20.0889 31.7972 20 31.9998 20C32.2025 20 32.4052 20.0889 32.5403 20.2667L38.0798 27.9996L44.042 21.5809C44.5207 21.0655 45.3892 21.4406 45.3303 22.1373L43.9998 35.9996H19.9998L18.6693 22.1373Z" fill="white"/>
<path d="M19.9998 40C19.9998 39.2636 20.5968 38.6667 21.3332 38.6667H42.6665C43.4029 38.6667 43.9998 39.2636 43.9998 40V42.6667C43.9998 43.403 43.4029 44 42.6665 44H21.3332C20.5968 44 19.9998 43.403 19.9998 42.6667V40Z" fill="white"/>
</g>
<defs>
<clipPath id="clip0_3164_39102">
<rect width="32" height="32" fill="white" transform="translate(16 16)"/>
</clipPath>
</defs>
</svg>
