<svg width="32" height="32" viewBox="0 0 32 32" fill="none" xmlns="http://www.w3.org/2000/svg">
<circle cx="16" cy="16" r="16" fill="#C1013E"/>
<g clip-path="url(#clip0_53491_45493)">
<g clip-path="url(#clip1_53491_45493)">
<path fill-rule="evenodd" clip-rule="evenodd" d="M7.2749 9.45605V22.8097H9.73351V11.6768H12.7806V22.8097H15.2432V9.45605H7.2749Z" fill="#FFFFFE"/>
<path fill-rule="evenodd" clip-rule="evenodd" d="M19.9944 20.7473C19.7553 20.7473 19.1543 20.6922 19.1543 20.6922V15.9907C19.1543 15.9907 19.3477 15.9457 19.5589 15.9457C20.8058 15.9457 22.2803 15.8723 22.2803 18.3439C22.2803 20.6101 20.6606 20.7473 19.9944 20.7473ZM20.2921 13.8267C19.8685 13.8267 19.492 13.8363 19.1543 13.8526V11.6772H23.5669V9.45605H16.6953V22.8101C16.6953 22.8101 17.9863 22.8101 20.4277 22.8101C24.1481 22.8101 24.7249 19.5065 24.7249 18.2836C24.7249 16.836 24.1516 13.8267 20.2921 13.8267Z" fill="#FFFFFE"/>
</g>
</g>
<defs>
<clipPath id="clip0_53491_45493">
<rect width="17.45" height="17.45" fill="white" transform="translate(7.2749 7.2749)"/>
</clipPath>
<clipPath id="clip1_53491_45493">
<rect width="17.45" height="17.45" fill="white" transform="translate(7.2749 7.2749)"/>
</clipPath>
</defs>
</svg>
