<svg width="40" height="40" viewBox="0 0 40 40" fill="none" xmlns="http://www.w3.org/2000/svg">
<path fill-rule="evenodd" clip-rule="evenodd" d="M9.16675 9.16669C7.78604 9.16669 6.66675 10.286 6.66675 11.6667V21.6667C6.66675 23.0474 7.78604 24.1667 9.16675 24.1667H30.8334C32.2141 24.1667 33.3334 23.0474 33.3334 21.6667V11.6667C33.3334 10.286 32.2141 9.16669 30.8334 9.16669H9.16675ZM25.7308 12.5721C26.4011 12.7168 27.0168 13.0739 27.5001 13.5984L26.5483 14.6313C26.2533 14.3112 25.8774 14.0931 25.4682 14.0048C25.0591 13.9165 24.6349 13.9618 24.2495 14.1351C23.8641 14.3083 23.5346 14.6017 23.3028 14.9782L23.2896 15H25.2487C25.3547 15 25.4407 15.0933 25.4407 15.2084V15.625C25.4407 15.7401 25.3547 15.8334 25.2487 15.8334H22.9826C22.9592 15.9702 22.9473 16.1096 22.9473 16.25C22.9473 16.3904 22.9592 16.5299 22.9826 16.6667H25.2487C25.3547 16.6667 25.4407 16.76 25.4407 16.875V17.2917C25.4407 17.4067 25.3547 17.5 25.2487 17.5H23.2896L23.3028 17.5218C23.5346 17.8983 23.8641 18.1917 24.2495 18.365C24.6349 18.5382 25.0591 18.5836 25.4682 18.4952C25.8774 18.4069 26.2533 18.1889 26.5483 17.8687L27.5001 18.9017C27.0168 19.4261 26.4011 19.7833 25.7308 19.928C25.0606 20.0727 24.3658 19.9984 23.7344 19.7146C23.103 19.4307 22.5633 18.9501 22.1836 18.3334C22.0231 18.0727 21.8942 17.7926 21.7989 17.5H21.0254C20.9194 17.5 20.8334 17.4067 20.8334 17.2917V16.875C20.8334 16.76 20.9194 16.6667 21.0254 16.6667H21.6227C21.6085 16.5288 21.6013 16.3897 21.6013 16.25C21.6013 16.1103 21.6085 15.9712 21.6227 15.8334H21.0254C20.9194 15.8334 20.8334 15.7401 20.8334 15.625V15.2084C20.8334 15.0933 20.9194 15 21.0254 15H21.7989C21.8942 14.7075 22.0231 14.4274 22.1836 14.1666C22.5633 13.5499 23.103 13.0693 23.7344 12.7855C24.3658 12.5016 25.0606 12.4274 25.7308 12.5721ZM15.4167 18.9584C16.281 18.9584 16.8751 18.3729 16.8751 17.7676C16.8751 17.6283 16.8408 17.5629 16.8134 17.5254C16.78 17.4799 16.7142 17.4197 16.5728 17.3485C16.4279 17.2753 16.24 17.2085 15.9926 17.1331C15.9119 17.1086 15.8155 17.0804 15.7123 17.0504L15.7099 17.0497C15.5379 16.9996 15.3475 16.944 15.179 16.8901C15.0185 16.8387 14.8773 16.7978 14.7289 16.7548L14.7145 16.7506C14.6118 16.7208 14.5052 16.6898 14.3862 16.6536C14.1209 16.5727 13.8302 16.4754 13.5651 16.3418C13.2963 16.2064 13.0203 16.0174 12.8144 15.7364C12.6026 15.4473 12.5001 15.1089 12.5001 14.7324C12.5001 13.509 13.4612 12.5467 14.6876 12.2688V10.8334H16.1459V12.2688C17.3723 12.5466 18.3334 13.5089 18.3334 14.7324H16.8751C16.8751 14.1271 16.281 13.5417 15.4167 13.5417C14.5525 13.5417 13.9584 14.1271 13.9584 14.7324C13.9584 14.8718 13.9927 14.9372 14.0201 14.9746C14.0535 15.0202 14.1193 15.0804 14.2607 15.1516C14.4057 15.2247 14.5935 15.2915 14.8409 15.3669C14.9201 15.391 15.0147 15.4186 15.1157 15.4481L15.1264 15.4512C15.2976 15.5011 15.487 15.5563 15.6545 15.6099C15.8149 15.6613 15.9564 15.7023 16.1048 15.7453L16.1076 15.7461C16.2139 15.777 16.3239 15.8089 16.4473 15.8465C16.7126 15.9273 17.0033 16.0246 17.2685 16.1582C17.5372 16.2936 17.8132 16.4827 18.0191 16.7637C18.231 17.0528 18.3334 17.3912 18.3334 17.7676C18.3334 18.9911 17.3723 19.9534 16.1459 20.2312V21.6667H14.6876V20.2312C13.4612 19.9534 12.5001 18.9911 12.5001 17.7676H13.9584C13.9584 18.3729 14.5525 18.9584 15.4167 18.9584Z" fill="white"/>
<path d="M8.33341 25.8334H31.6667V26.6667C31.6667 27.1269 31.2936 27.5 30.8334 27.5H9.16675C8.70651 27.5 8.33341 27.1269 8.33341 26.6667V25.8334Z" fill="white"/>
<path d="M10.0001 29.1667H30.0001V30C30.0001 30.4603 29.627 30.8334 29.1667 30.8334H10.8334C10.3732 30.8334 10.0001 30.4603 10.0001 30V29.1667Z" fill="white"/>
</svg>
