<svg width="32" height="32" viewBox="0 0 32 32" fill="none" xmlns="http://www.w3.org/2000/svg">
<circle cx="16" cy="16" r="16" fill="#1758C2"/>
<g clip-path="url(#clip0)">
<g clip-path="url(#clip1)">
<path fill-rule="evenodd" clip-rule="evenodd" d="M22.6879 15.3035C22.6085 15.374 22.5235 15.4439 22.4286 15.5202C21.8476 15.9931 20.9314 16.3717 19.659 16.7324C17.0193 17.4817 15.104 17.594 12.9232 18.1598C12.5009 18.2685 12.0569 18.4204 11.6451 18.5989C12.0569 18.8142 12.4932 19.0172 12.9435 19.1971C13.8253 18.9308 14.2525 18.8077 15.5354 18.5781C16.0237 18.491 17.5259 18.2117 18.617 17.9669C20.5766 17.5235 23.4516 16.5618 22.6879 15.3035ZM21.4239 12.689C21.0073 12.4896 20.4824 12.2953 19.9302 12.1376C19.6829 12.3478 19.392 12.5314 18.9803 12.7013C19.6709 12.8308 20.1923 13.0346 20.7733 13.2131C20.878 13.2685 21.3487 12.7992 21.4239 12.689ZM11.806 15.4705C14.3691 14.6744 17.0636 14.4296 19.7883 13.6572C18.7238 13.3527 18.1407 13.2246 17.0137 13.3657C15.378 13.5687 13.5808 13.9466 12.0414 14.4303C11.4386 14.6196 8.26001 15.5727 9.1769 16.9073C9.1769 16.9239 9.72352 16.1155 11.806 15.4705ZM10.0369 20.0537C10.0327 20.3021 10.1739 20.5238 10.488 20.793C10.528 20.6591 10.5828 20.5605 10.677 20.4309C10.4577 20.315 10.2449 20.1862 10.0369 20.0537ZM11.2411 19.9263C11.4329 19.8061 11.6641 19.6845 11.9311 19.5729C11.5657 19.4138 11.1934 19.2403 10.8126 19.0524C10.6397 19.1647 10.4865 19.2864 10.3657 19.4109C10.6559 19.588 10.9446 19.7629 11.2411 19.9263ZM21.1 14.1546C20.5815 14.408 19.841 14.6708 18.7772 14.9536C17.9074 15.1854 15.782 15.5086 13.5014 16.0334C12.7763 16.1997 10.8217 16.6892 9.85983 17.5544C10.1275 17.7819 10.2933 17.8395 10.5933 18.0166C10.9931 17.7466 11.5292 17.4918 12.3344 17.2636C13.7347 16.867 14.7787 16.6971 16.0385 16.4876C17.2898 16.2774 19.6386 15.7563 20.9419 15.2617C21.3649 15.0991 21.7605 14.8925 22.0549 14.6513C21.9649 14.5426 21.1274 14.1143 21.1 14.1546ZM21.8574 13.6637C22.1111 13.7969 22.3401 13.894 22.5635 14.0603C22.7244 13.7364 22.6261 13.5255 22.2923 13.2253C22.1624 13.3873 22.0141 13.532 21.8574 13.6637ZM9.91463 18.5701C9.68699 18.4326 9.53101 18.3376 9.3385 18.1973C9.23451 18.4362 9.42703 18.6975 9.6357 18.8235C9.72352 18.7314 9.82329 18.6551 9.91463 18.5701ZM20.8302 11.0687C20.7839 11.2537 20.5963 11.4682 20.467 11.6129C20.8534 11.7208 21.242 11.8698 21.6157 12.0189C21.5708 11.6568 21.1696 11.3048 20.8302 11.0687ZM8.76237 13.383C11.4498 11.5157 14.4197 10.4302 19.4552 11.3508C19.7342 11.1795 19.8873 11.0183 19.959 10.6699C18.7006 10.1897 17.3376 10.0198 15.5762 10.0522C13.9876 10.0962 11.1357 10.7217 9.61392 11.674L10.0755 11.0622C11.1428 10.4006 13.9195 9.51956 15.9999 9.47781C17.4683 9.44829 18.2306 9.53396 19.9717 10.0314C19.8213 9.71536 19.4566 9.55771 18.9311 9.30721C17.242 8.50314 14.0874 8.42828 11.5032 9.63185C11.8306 9.40654 12.151 9.19635 12.5691 8.99335C13.4206 8.58088 14.8146 8.18137 16.5577 8.21161C17.9517 8.2368 19.6049 8.75005 20.6187 9.81541C20.7874 10.0256 20.8843 10.2495 20.9265 10.4273C21.7303 10.8577 22.194 11.2594 22.4574 11.7367C22.5628 11.9778 22.6092 12.2463 22.5614 12.5436C22.8945 12.7567 23.0526 12.9331 23.2163 13.1641C23.3378 13.3614 23.4249 13.5802 23.4481 13.7846C23.479 14.0502 23.5071 14.3497 23.2444 14.6981C23.5226 14.8406 23.7348 15.2423 23.7699 15.4215C23.895 16.0615 23.5064 16.6842 22.9928 17.1708C22.4041 17.7193 21.1028 18.3679 20.0433 18.6551C17.9362 19.2166 16.0778 19.4555 14.5982 19.7435C15.2572 19.9098 16.16 20.1372 17.6355 20.1372C20.7747 20.1372 23.5542 18.5629 23.5542 18.5629C23.5542 18.5629 23.4896 18.771 23.4284 18.9481C21.4352 20.2279 18.2566 20.7685 16.9048 20.703C15.5249 20.6354 14.3705 20.4201 13.2365 20.0509C12.888 20.1488 12.5466 20.2646 12.2171 20.4201C13.9426 21.2508 15.2439 21.4373 16.72 21.5517C18.2236 21.6676 20.7136 21.2839 22.8158 20.4777C22.7209 20.5778 22.6703 20.7405 22.5727 20.8355C21.497 21.4308 19.2199 22.034 18.0774 22.0844C16.9399 22.1341 15.5516 22.0894 14.3452 21.8454C13.304 21.6338 12.4594 21.2839 11.5728 20.8736C11.4126 20.9989 11.3318 21.1659 11.3037 21.3451C14.764 23.2599 18.0058 23.3017 21.6923 22.0887L21.3551 22.4314C17.2947 24.1741 14.1204 23.4996 11.6648 22.2442C11.5875 22.2061 11.487 22.1643 11.4175 22.1168C11.6423 22.5379 13.5211 23.9884 15.6169 24.1698C17.0622 24.295 18.8278 24.0337 19.8747 23.5889L19.262 23.9286C18.754 24.1935 17.4121 24.7917 15.5319 24.6607C13.0279 24.4808 11.6198 23.3089 10.9882 22.6941C10.6945 22.4083 10.5561 22.0736 10.4669 21.6662C9.90058 21.3509 9.54436 21.027 9.25138 20.5411C9.07783 20.2546 9.11156 19.9328 9.15512 19.6636C9.17058 19.5786 9.19025 19.5002 9.22116 19.421C8.94926 19.2137 8.67454 18.9905 8.5565 18.7659C8.30989 18.293 8.46095 17.8856 8.63238 17.5717C8.48343 17.3925 8.34713 17.2147 8.2839 17.0311C8.21926 16.813 8.20661 16.6086 8.22417 16.3782C8.27125 15.9794 8.47289 15.6152 8.72934 15.3013C9.27737 14.6326 10.1352 14.1136 11.6114 13.5967C13.0524 13.0907 13.6335 13.013 14.7211 12.7473C15.9907 12.4364 17.5076 12.3363 18.7807 11.8662C15.2382 11.2062 11.5587 11.8051 8.55791 13.9948L8.76237 13.383Z" fill="white"/>
</g>
</g>
<defs>
<clipPath id="clip0">
<rect width="17.4545" height="17.4545" fill="white" transform="translate(7.27231 7.27271)"/>
</clipPath>
<clipPath id="clip1">
<rect width="15.7091" height="16.5818" fill="white" transform="translate(8.14481 8.14545)"/>
</clipPath>
</defs>
</svg>
