<svg width="32" height="32" viewBox="0 0 32 32" fill="none" xmlns="http://www.w3.org/2000/svg">
<circle cx="16" cy="16" r="16" fill="#229BD7"/>
<g clip-path="url(#clip0)">
<g clip-path="url(#clip1)">
<path fill-rule="evenodd" clip-rule="evenodd" d="M7.27231 12.9397V18.4482L7.27308 18.5135C8.17109 20.175 9.90749 21.3174 11.9168 21.3741C10.317 21.295 9.04084 20.012 9.04084 18.4482V12.1442C9.04084 11.7525 9.35901 11.4358 9.74918 11.4358C8.67196 11.4358 7.73796 11.6598 7.27231 12.5535" fill="white"/>
<mask id="mask0" style="mask-type:alpha" maskUnits="userSpaceOnUse" x="7" y="11" width="5" height="11">
<path fill-rule="evenodd" clip-rule="evenodd" d="M7.27231 12.9397V18.4482L7.27308 18.5135C8.17109 20.175 9.90749 21.3174 11.9168 21.3741C10.317 21.295 9.04084 20.012 9.04084 18.4482V12.1442C9.04084 11.7525 9.35901 11.4358 9.74918 11.4358C8.67196 11.4358 7.73796 11.6598 7.27231 12.5535" fill="white"/>
</mask>
<g mask="url(#mask0)">
<path d="M6.11118 11.0495H10.7576V21.8633H6.11118V11.0495Z" fill="white"/>
<path fill-rule="evenodd" clip-rule="evenodd" d="M9.74918 9.89095C8.38282 9.89095 7.27231 11.0013 7.27231 12.3665V13.1621C7.5074 12.7091 7.86276 12.3292 8.29957 12.0639C8.73638 11.7987 9.23784 11.6584 9.74918 11.6582H11.5053C11.6215 11.6581 11.7366 11.6352 11.8439 11.5907C11.9512 11.5463 12.0487 11.4812 12.1308 11.3991C12.2129 11.317 12.278 11.2197 12.3223 11.1125C12.3667 11.0054 12.3895 10.8905 12.3894 10.7746C12.3895 10.6586 12.3667 10.5438 12.3223 10.4367C12.278 10.3295 12.2129 10.2321 12.1308 10.1501C12.0487 10.068 11.9512 10.0029 11.8439 9.95845C11.7366 9.91398 11.6215 9.89105 11.5053 9.89095H9.74956H9.74918Z" fill="white"/>
</g>
<mask id="mask1" style="mask-type:alpha" maskUnits="userSpaceOnUse" x="7" y="9" width="6" height="5">
<path fill-rule="evenodd" clip-rule="evenodd" d="M9.74918 9.89095C8.38282 9.89095 7.27231 11.0013 7.27231 12.3665V13.1621C7.5074 12.7091 7.86276 12.3292 8.29957 12.0639C8.73638 11.7987 9.23784 11.6584 9.74918 11.6582H11.5053C11.6215 11.6581 11.7366 11.6352 11.8439 11.5907C11.9512 11.5463 12.0487 11.4812 12.1308 11.3991C12.2129 11.317 12.278 11.2197 12.3223 11.1125C12.3667 11.0054 12.3895 10.8905 12.3894 10.7746C12.3895 10.6586 12.3667 10.5438 12.3223 10.4367C12.278 10.3295 12.2129 10.2321 12.1308 10.1501C12.0487 10.068 11.9512 10.0029 11.8439 9.95845C11.7366 9.91398 11.6215 9.89105 11.5053 9.89095H9.74956H9.74918Z" fill="white"/>
</mask>
<g mask="url(#mask1)">
<path d="M6.14435 10.6636L11.4863 8.39009L13.4607 13.0086L8.11871 15.2821L6.14435 10.6636Z" fill="white"/>
</g>
<mask id="mask2" style="mask-type:alpha" maskUnits="userSpaceOnUse" x="19" y="11" width="6" height="11">
<path fill-rule="evenodd" clip-rule="evenodd" d="M21.6348 13.9213C21.6348 14.0626 21.6213 14.2013 21.5953 14.3353C21.5429 14.607 21.4377 14.8658 21.2857 15.0973C21.0217 15.5144 21.0883 15.9724 21.4955 16.2045C21.7568 16.3459 21.9928 16.5294 22.1941 16.7476C22.668 17.2634 22.9299 17.9383 22.928 18.638C22.928 20.0469 21.8934 21.211 20.5681 21.3612C22.474 21.2789 24.0347 20.164 24.6958 18.5844C24.69 17.9519 24.5518 17.3277 24.29 16.7516C24.0282 16.1756 23.6487 15.6605 23.1758 15.2394C23.324 14.8281 23.4037 14.384 23.4037 13.9213C23.4037 13.6737 23.348 13.2072 23.3031 12.9724C22.3536 12.1227 21.0879 11.5975 19.7266 11.5975C19.6943 11.5978 19.662 11.5985 19.6298 11.5998C20.7221 11.6276 21.6348 12.7816 21.6348 13.9209V13.9213Z" fill="white"/>
</mask>
<g mask="url(#mask2)">
<path d="M19.6622 11.4358H24.6957V21.4773H19.6622V11.4358Z" fill="white"/>
<path fill-rule="evenodd" clip-rule="evenodd" d="M19.5928 9.89095C21.4414 9.89095 22.9847 11.2465 23.318 13.0327C22.3681 12.1831 21.1024 11.6582 19.7414 11.6582C19.7089 11.6582 19.6764 11.6594 19.6443 11.6602C19.6271 11.659 19.61 11.6584 19.5928 11.6582H16.8759V18.2844C16.8759 20.8743 14.7219 22.9819 12.0739 22.9819C9.44804 22.9819 7.30908 20.9098 7.27231 18.3497C8.16993 20.0111 9.90672 21.1535 11.916 21.2107C11.9679 21.2126 12.0209 21.2146 12.0739 21.2146C13.7461 21.2146 15.107 19.8999 15.107 18.2844V9.89095H19.5932H19.5928Z" fill="white"/>
</g>
<mask id="mask3" style="mask-type:alpha" maskUnits="userSpaceOnUse" x="7" y="9" width="17" height="14">
<path fill-rule="evenodd" clip-rule="evenodd" d="M19.5928 9.89095C21.4414 9.89095 22.9847 11.2465 23.318 13.0327C22.3681 12.1831 21.1024 11.6582 19.7414 11.6582C19.7089 11.6582 19.6764 11.6594 19.6443 11.6602C19.6271 11.659 19.61 11.6584 19.5928 11.6582H16.8759V18.2844C16.8759 20.8743 14.7219 22.9819 12.0739 22.9819C9.44804 22.9819 7.30908 20.9098 7.27231 18.3497C8.16993 20.0111 9.90672 21.1535 11.916 21.2107C11.9679 21.2126 12.0209 21.2146 12.0739 21.2146C13.7461 21.2146 15.107 19.8999 15.107 18.2844V9.89095H19.5932H19.5928Z" fill="white"/>
</mask>
<g mask="url(#mask3)">
<path d="M4.40582 12.2664L22.7507 4.97718L29.4817 21.8417L11.1368 29.1309L4.40582 12.2664Z" fill="white"/>
<path fill-rule="evenodd" clip-rule="evenodd" d="M20.5988 21.1643C20.5024 21.1751 20.4055 21.1807 20.3085 21.1809H17.4496C17.2147 21.1809 16.9895 21.274 16.8234 21.4397C16.6573 21.6054 16.564 21.8302 16.564 22.0645C16.564 22.2989 16.6573 22.5237 16.8234 22.6894C16.9895 22.8551 17.2147 22.9482 17.4496 22.9482H20.3089C22.7447 22.9482 24.7269 20.926 24.7269 18.4411L24.7266 18.3871C24.0654 19.9667 22.5048 21.082 20.5988 21.1639V21.1643Z" fill="white"/>
</g>
<mask id="mask4" style="mask-type:alpha" maskUnits="userSpaceOnUse" x="16" y="18" width="9" height="5">
<path fill-rule="evenodd" clip-rule="evenodd" d="M20.5988 21.1643C20.5024 21.1751 20.4055 21.1807 20.3085 21.1809H17.4496C17.2147 21.1809 16.9895 21.274 16.8234 21.4397C16.6573 21.6054 16.564 21.8302 16.564 22.0645C16.564 22.2989 16.6573 22.5237 16.8234 22.6894C16.9895 22.8551 17.2147 22.9482 17.4496 22.9482H20.3089C22.7447 22.9482 24.7269 20.926 24.7269 18.4411L24.7266 18.3871C24.0654 19.9667 22.5048 21.082 20.5988 21.1639V21.1643Z" fill="white"/>
</mask>
<g mask="url(#mask4)">
<path d="M16.5645 18.3872H25.4698V23.4079H16.5645V18.3872Z" fill="white"/>
</g>
</g>
</g>
<defs>
<clipPath id="clip0">
<rect width="17.4545" height="17.4545" fill="white" transform="translate(7.27231 7.27271)"/>
</clipPath>
<clipPath id="clip1">
<rect width="17.4545" height="13.0909" fill="white" transform="translate(7.27231 9.89095)"/>
</clipPath>
</defs>
</svg>
