<svg width="20" height="20" viewBox="0 0 20 20" fill="none" xmlns="http://www.w3.org/2000/svg">
<g clip-path="url(#clip0_14458_54204)">
<path d="M10 20C15.5229 20 20 15.5229 20 10C20 4.47715 15.5229 0 10 0C4.47715 0 0 4.47715 0 10C0 15.5229 4.47715 20 10 20Z" fill="#003399"/>
<path d="M9.99999 2.82812L10.2271 3.52765L10.9622 3.5275L10.3672 3.9596L10.5947 4.6591L9.99997 4.22683L9.40528 4.6591L9.63274 3.9596L9.03772 3.5275L9.77287 3.52765L9.99999 2.82812Z" fill="#FFCC00"/>
<path d="M9.99995 14.974L9.77287 15.6734L9.03772 15.6732L9.63272 16.1053L9.40528 16.8048L9.99997 16.3726L10.5947 16.8048L10.3672 16.1053L10.9622 15.6732L10.2271 15.6734L9.99995 14.974Z" fill="#FFCC00"/>
<path d="M3.93161 8.90099L3.70449 9.60053L2.96936 9.60036L3.56438 10.0325L3.33692 10.732L3.93163 10.2997L4.52632 10.732L4.29886 10.0325L4.89388 9.60036L4.15874 9.60053L3.93161 8.90099Z" fill="#FFCC00"/>
<path d="M6.37067 5.47272L6.96561 5.04028L7.56025 5.47251L7.33286 4.77319L7.92803 4.34099L7.19284 4.34113L6.9658 3.64186L6.73863 4.34149L6.0033 4.34132L6.59811 4.77328L6.37067 5.47272Z" fill="#FFCC00"/>
<path d="M5.33978 7.69554L5.11235 6.9961L5.70718 6.56414L4.97183 6.56429L4.74468 5.86469L4.51764 6.56396L3.78241 6.56379L4.3776 6.99602L4.1502 7.69533L4.74485 7.2631L5.33978 7.69554Z" fill="#FFCC00"/>
<path d="M5.7076 12.6368L4.97212 12.637L4.74512 11.9378L4.51803 12.6372L3.78247 12.637L4.37735 13.069L4.14999 13.7682L4.74499 13.3357L5.3398 13.7681L5.11249 13.069L5.7076 12.6368Z" fill="#FFCC00"/>
<path d="M7.92881 14.8596L7.19333 14.8598L6.96631 14.1606L6.73923 14.86L6.00366 14.8598L6.59854 15.2919L6.37118 15.991L6.96618 15.5585L7.561 15.9909L7.33368 15.2918L7.92881 14.8596Z" fill="#FFCC00"/>
<path d="M16.0684 8.90099L16.2955 9.60053L17.0306 9.60036L16.4357 10.0325L16.6631 10.732L16.0684 10.2997L15.4737 10.732L15.7011 10.0325L15.1061 9.60036L15.8413 9.60053L16.0684 8.90099Z" fill="#FFCC00"/>
<path d="M13.6293 5.47272L13.0344 5.04028L12.4398 5.47251L12.6671 4.77319L12.072 4.34099L12.8072 4.34113L13.0342 3.64186L13.2614 4.34149L13.9967 4.34132L13.4019 4.77328L13.6293 5.47272Z" fill="#FFCC00"/>
<path d="M14.6602 7.69555L14.8877 6.99611L14.2928 6.56415L15.0282 6.5643L15.2553 5.86484L15.4823 6.56396L16.2176 6.5638L15.6224 6.99602L15.8498 7.69534L15.2552 7.26311L14.6602 7.69555Z" fill="#FFCC00"/>
<path d="M14.2924 12.6368L15.0279 12.637L15.2549 11.9379L15.482 12.6372L16.2175 12.637L15.6227 13.069L15.85 13.7682L15.255 13.3357L14.6602 13.7681L14.8875 13.069L14.2924 12.6368Z" fill="#FFCC00"/>
<path d="M12.0712 14.8596L12.8067 14.8598L13.0337 14.1606L13.2608 14.86L13.9964 14.8598L13.4015 15.2919L13.6288 15.991L13.0339 15.5585L12.439 15.9909L12.6664 15.2918L12.0712 14.8596Z" fill="#FFCC00"/>
<g style="mix-blend-mode:difference">
<path fill-rule="evenodd" clip-rule="evenodd" d="M10 20C15.5229 20 20 15.5229 20 10C20 4.47715 15.5229 0 10 0C4.47715 0 0 4.47715 0 10C0 15.5229 4.47715 20 10 20ZM10 19.5833C15.2927 19.5833 19.5833 15.2927 19.5833 10C19.5833 4.70727 15.2927 0.416667 10 0.416667C4.70727 0.416667 0.416667 4.70727 0.416667 10C0.416667 15.2927 4.70727 19.5833 10 19.5833Z" fill="white" fill-opacity="0.03"/>
</g>
</g>
<defs>
<clipPath id="clip0_14458_54204">
<rect width="20" height="20" fill="white"/>
</clipPath>
</defs>
</svg>
