<svg width="64" height="64" viewBox="0 0 64 64" fill="none" xmlns="http://www.w3.org/2000/svg">
<path d="M1.04038 16.421C2.20457 8.28708 8.28708 2.20456 16.421 1.04038C20.5731 0.446119 25.7661 0 32 0C38.2339 0 43.4269 0.446119 47.579 1.04038C55.7129 2.20456 61.7954 8.28708 62.9596 16.421C63.5539 20.5731 64 25.7661 64 32C64 38.2339 63.5539 43.4269 62.9596 47.579C61.7954 55.7129 55.7129 61.7954 47.579 62.9596C43.4269 63.5539 38.2339 64 32 64C25.7661 64 20.5731 63.5539 16.421 62.9596C8.28708 61.7954 2.20456 55.7129 1.04038 47.579C0.446119 43.4269 0 38.2339 0 32C0 25.7661 0.446119 20.5731 1.04038 16.421Z" fill="white" fill-opacity="0.1"/>
<g clip-path="url(#clip0_3164_39103)">
<path d="M30.7513 20.6732C31.1832 19.5181 32.8171 19.5181 33.2491 20.6732L35.641 27.0702C35.8284 27.5713 36.2972 27.9119 36.8317 27.9352L43.6547 28.2334C44.8868 28.2872 45.3917 29.8411 44.4265 30.6089L39.0819 34.8605C38.6632 35.1936 38.4841 35.7447 38.6271 36.2603L40.4519 42.8414C40.7815 44.0298 39.4596 44.9902 38.4312 44.3096L32.7361 40.5403C32.2899 40.2451 31.7105 40.2451 31.2643 40.5403L25.5691 44.3096C24.5407 44.9902 23.2189 44.0298 23.5484 42.8414L25.3733 36.2603C25.5162 35.7447 25.3372 35.1936 24.9185 34.8605L19.5738 30.6089C18.6087 29.8411 19.1136 28.2872 20.3457 28.2334L27.1687 27.9352C27.7032 27.9119 28.1719 27.5713 28.3593 27.0702L30.7513 20.6732Z" fill="white"/>
</g>
<defs>
<clipPath id="clip0_3164_39103">
<rect width="32" height="32" fill="white" transform="translate(16 16)"/>
</clipPath>
</defs>
</svg>
