<svg width="96" height="96" viewBox="0 0 96 96" fill="none" xmlns="http://www.w3.org/2000/svg">
<path fill-rule="evenodd" clip-rule="evenodd" d="M6 48C6 71.196 24.804 90 48 90C71.196 90 90 71.196 90 48C90 24.804 71.196 6 48 6C24.804 6 6 24.804 6 48ZM48 0C21.4903 0 0 21.4903 0 48C0 74.5097 21.4903 96 48 96C74.5097 96 96 74.5097 96 48C96 21.4903 74.5097 0 48 0Z" fill="#F5F7F9"/>
<path fill-rule="evenodd" clip-rule="evenodd" d="M58.2202 37.1242C58.6108 36.7337 59.2439 36.7337 59.6345 37.1242L62.9343 40.424C63.3248 40.8145 63.3248 41.4477 62.9343 41.8382L48.7921 55.9804L45.4923 59.2802C45.1018 59.6707 44.4686 59.6707 44.0781 59.2802L40.7783 55.9804L33.7072 48.9093C33.3167 48.5188 33.3167 47.8856 33.7072 47.4951L37.007 44.1953C37.3976 43.8047 38.0307 43.8047 38.4212 44.1953L44.7852 50.5592L58.2202 37.1242Z" fill="#F15045"/>
</svg>
