<svg width="40" height="40" viewBox="0 0 40 40" fill="none" xmlns="http://www.w3.org/2000/svg">
<path d="M23.4454 14.3507L26.1006 11.6954C27.3433 10.4527 28.9103 9.58431 30.6227 9.18916C31.2364 9.04749 31.7865 9.5976 31.6449 10.2114C31.2497 11.9238 30.3814 13.4906 29.1387 14.7333L26.4833 17.3886L28.647 29.289C28.9175 30.776 27.5501 31.2205 26.4272 31.5855C26.343 31.6128 26.2602 31.64 26.1795 31.6667L21.015 22.8569L17.6733 26.1986L17.8556 28.9338C17.9283 30.0252 17.3044 31.0436 16.299 31.4745L15.8505 31.6667L13.3868 27.4472L9.16699 24.9834L9.35925 24.5349C9.79011 23.5296 10.8086 22.9056 11.9 22.9784L14.6353 23.1605L17.977 19.8189L9.16699 14.6545C9.19389 14.5738 9.22082 14.491 9.24821 14.4067C9.6133 13.2838 10.0578 11.9166 11.5448 12.187L23.4454 14.3507Z" fill="white"/>
</svg>
