<svg width="20" height="20" viewBox="0 0 20 20" fill="none" xmlns="http://www.w3.org/2000/svg">
<path fill-rule="evenodd" clip-rule="evenodd" d="M10 20C15.5228 20 20 15.5228 20 10C20 4.47715 15.5228 0 10 0C4.47715 0 0 4.47715 0 10C0 15.5228 4.47715 20 10 20ZM14.8642 5.83868C15.0179 5.99242 15.0152 6.32557 14.9807 6.55592L13.8041 14.25C13.7466 14.6246 13.5729 15.0843 13.2726 15.2328C12.9414 15.3966 12.4379 15.2713 12.0914 15.0375L8.7854 12.8081C8.43307 12.5704 8.38913 12.0686 8.69479 11.7732L12.0819 8.50034C12.1747 8.41067 12.2256 8.23878 12.1485 8.14763C12.0719 8.05695 11.8834 8.068 11.7847 8.13536L7.60489 10.9869C6.94758 11.4353 6.12471 11.5677 5.35991 11.3482L3.86755 10.901C3.62219 10.8246 3.39951 10.6528 3.39215 10.4865C3.385 10.3247 3.54979 10.1488 3.82733 10.0161L13.8955 5.79677C14.2007 5.66721 14.6698 5.64202 14.8642 5.83868Z" fill="white"/>
</svg>
