<svg width="20" height="20" viewBox="0 0 20 20" fill="none" xmlns="http://www.w3.org/2000/svg">
<g clip-path="url(#clip0_14458_54129)">
<path d="M10 20C15.5229 20 20 15.5229 20 10C20 4.47715 15.5229 0 10 0C4.47715 0 0 4.47715 0 10C0 15.5229 4.47715 20 10 20Z" fill="white"/>
<path fill-rule="evenodd" clip-rule="evenodd" d="M17.2487 3.11111C16.6858 2.51906 16.0512 1.9959 15.3588 1.55556H4.64119C3.94873 1.9959 3.31413 2.51906 2.75129 3.11111H17.2487ZM19.2618 6.22223C19.0396 5.6781 18.7709 5.15794 18.4606 4.66667H1.5394C1.22907 5.15794 0.96034 5.6781 0.738169 6.22223H19.2618ZM19.7522 7.77777C19.8668 8.28286 19.9432 8.80244 19.9781 9.33333H0.0218506C0.056795 8.80244 0.133171 8.28286 0.247778 7.77777H19.7522ZM19.6991 12.4444C19.8258 11.94 19.9142 11.4204 19.961 10.8889H0.0389479C0.0857675 11.4204 0.174175 11.94 0.300896 12.4444H19.6991ZM19.1679 14C18.9295 14.5456 18.6438 15.0659 18.316 15.5556H1.68392C1.35614 15.0659 1.07047 14.5456 0.832067 14H19.1679ZM14.9922 18.6667C15.7378 18.2363 16.4226 17.7124 17.0308 17.1111H2.96919C3.57731 17.7124 4.26217 18.2363 5.00775 18.6667H14.9922Z" fill="white"/>
<path fill-rule="evenodd" clip-rule="evenodd" d="M10 0C11.9716 0 13.8099 0.570554 15.3588 1.55556H10V0ZM10 4.66667H18.4606C18.1079 4.1084 17.7015 3.58746 17.2487 3.1111H10V4.66667ZM19.7522 7.77777H10V6.22223H19.2618C19.4658 6.72183 19.6305 7.24163 19.7522 7.77777ZM0 10C0 10.2996 0.0131713 10.596 0.0389665 10.8889H19.961C19.9868 10.596 20 10.2996 20 10C20 9.77598 19.9926 9.55369 19.9781 9.33333H10V10H0ZM19.1679 14C19.3858 13.5014 19.5641 12.9815 19.6991 12.4444H0.300917C0.43585 12.9815 0.614225 13.5014 0.832087 14H19.1679ZM18.3161 15.5556C17.9404 16.1168 17.5093 16.6379 17.0308 17.1111H2.96921C2.49067 16.6379 2.05965 16.1168 1.68394 15.5556H18.3161ZM10 20C11.8182 20 13.5231 19.5147 14.9922 18.6667H5.00777C6.47687 19.5147 8.18177 20 10 20Z" fill="#CF1E2B"/>
<path d="M10 0C4.47715 0 0 4.47715 0 10H10V0Z" fill="#003399"/>
<path d="M3.82379 3.82919L3.52067 4L3.57856 3.63821L3.33331 3.38198L3.67223 3.32919L3.82379 3L3.97535 3.32919L4.31427 3.38198L4.06904 3.63821L4.12694 4L3.82379 3.82919Z" fill="white"/>
<path d="M3.82379 5.60696L3.52067 5.77777L3.57856 5.41598L3.33331 5.15975L3.67223 5.10696L3.82379 4.77777L3.97535 5.10696L4.31427 5.15975L4.06904 5.41598L4.12694 5.77777L3.82379 5.60696Z" fill="white"/>
<path d="M2.60156 4.94031L2.29844 5.11112L2.35633 4.74931L2.11108 4.49308L2.45 4.44031L2.60156 4.11112L2.75313 4.44031L3.09204 4.49308L2.84681 4.74931L2.90471 5.11112L2.60156 4.94031Z" fill="white"/>
<path d="M2.49048 6.60698L2.18734 6.77779L2.24523 6.41598L2 6.15975L2.33892 6.10698L2.49048 5.77779L2.64205 6.10698L2.98096 6.15975L2.73573 6.41598L2.79361 6.77779L2.49048 6.60698Z" fill="white"/>
<path d="M3.60156 7.71808L3.29844 7.88892L3.35633 7.5271L3.11108 7.27087L3.45 7.21808L3.60156 6.88892L3.75315 7.21808L4.09206 7.27087L3.84681 7.5271L3.90471 7.88892L3.60156 7.71808Z" fill="white"/>
<path d="M2.49048 8.38475L2.18734 8.55556L2.24523 8.19377L2 7.93754L2.33892 7.88475L2.49048 7.55556L2.64205 7.88475L2.98096 7.93754L2.73573 8.19377L2.79361 8.55556L2.49048 8.38475Z" fill="white"/>
<path d="M1.26825 7.49585L0.965119 7.66666L1.02301 7.30485L0.777771 7.04862L1.11669 6.99585L1.26825 6.66666L1.41982 6.99585L1.75874 7.04862L1.51349 7.30485L1.57139 7.66666L1.26825 7.49585Z" fill="white"/>
<path d="M1.26825 9.27365L0.965119 9.44446L1.02301 9.08267L0.777771 8.82644L1.11669 8.77364L1.26825 8.44446L1.41982 8.77364L1.75874 8.82644L1.51349 9.08267L1.57139 9.44446L1.26825 9.27365Z" fill="white"/>
<path d="M3.82379 9.27365L3.52067 9.44446L3.57856 9.08267L3.33331 8.82644L3.67223 8.77364L3.82379 8.44446L3.97535 8.77364L4.31427 8.82644L4.06904 9.08267L4.12694 9.44446L3.82379 9.27365Z" fill="white"/>
<path d="M8.93494 1.82919L8.63181 2.00001L8.68971 1.6382L8.44446 1.38197L8.78337 1.32919L8.93494 1.00001L9.08652 1.32919L9.42544 1.38197L9.18019 1.6382L9.23808 2.00001L8.93494 1.82919Z" fill="white"/>
<path d="M8.93494 3.60696L8.63181 3.77779L8.68971 3.41598L8.44446 3.15975L8.78337 3.10696L8.93494 2.77779L9.08652 3.10696L9.42544 3.15975L9.18019 3.41598L9.23808 3.77779L8.93494 3.60696Z" fill="white"/>
<path d="M8.93494 5.38475L8.63181 5.55557L8.68971 5.19375L8.44446 4.93752L8.78337 4.88475L8.93494 4.55556L9.08652 4.88475L9.42544 4.93752L9.18019 5.19375L9.23808 5.55557L8.93494 5.38475Z" fill="white"/>
<path d="M8.93494 7.16252L8.63181 7.33334L8.68971 6.97154L8.44446 6.71532L8.78337 6.66252L8.93494 6.33334L9.08652 6.66252L9.42544 6.71532L9.18019 6.97154L9.23808 7.33334L8.93494 7.16252Z" fill="white"/>
<path d="M7.60156 2.82921L7.29844 3.00002L7.35633 2.63821L7.11108 2.38198L7.45 2.32921L7.60156 2.00002L7.75313 2.32921L8.09204 2.38198L7.84681 2.63821L7.90471 3.00002L7.60156 2.82921Z" fill="white"/>
<path d="M7.60156 4.60698L7.29844 4.77779L7.35633 4.416L7.11108 4.15977L7.45 4.10698L7.60156 3.77779L7.75313 4.10698L8.09204 4.15977L7.84681 4.416L7.90471 4.77779L7.60156 4.60698Z" fill="white"/>
<path d="M7.60156 6.38475L7.29844 6.55556L7.35633 6.19377L7.11108 5.93754L7.45 5.88475L7.60156 5.55556L7.75313 5.88475L8.09204 5.93754L7.84681 6.19377L7.90471 6.55556L7.60156 6.38475Z" fill="white"/>
<path d="M7.60156 8.16252L7.29844 8.33335L7.35633 7.97154L7.11108 7.71531L7.45 7.66252L7.60156 7.33335L7.75313 7.66252L8.09204 7.71531L7.84681 7.97154L7.90471 8.33335L7.60156 8.16252Z" fill="white"/>
<path d="M8.93494 9.0514L8.63181 9.22223L8.68971 8.86042L8.44446 8.60419L8.78337 8.5514L8.93494 8.22223L9.08652 8.5514L9.42544 8.60419L9.18019 8.86042L9.23808 9.22223L8.93494 9.0514Z" fill="white"/>
<path d="M6.49048 2.05141L6.18735 2.22223L6.24525 1.86042L6 1.6042L6.33892 1.55141L6.49048 1.22223L6.64206 1.55141L6.98098 1.6042L6.73573 1.86042L6.79362 2.22223L6.49048 2.05141Z" fill="white"/>
<path d="M6.49048 3.82919L6.18735 4L6.24525 3.63821L6 3.38198L6.33892 3.32919L6.49048 3L6.64206 3.32919L6.98098 3.38198L6.73573 3.63821L6.79362 4L6.49048 3.82919Z" fill="white"/>
<path d="M6.49048 5.60696L6.18735 5.77777L6.24525 5.41598L6 5.15975L6.33892 5.10696L6.49048 4.77777L6.64206 5.10696L6.98098 5.15975L6.73573 5.41598L6.79362 5.77777L6.49048 5.60696Z" fill="white"/>
<path d="M6.49048 7.38473L6.18735 7.55557L6.24525 7.19375L6 6.93752L6.33892 6.88473L6.49048 6.55556L6.64206 6.88473L6.98098 6.93752L6.73573 7.19375L6.79362 7.55557L6.49048 7.38473Z" fill="white"/>
<path d="M5.15711 3.05142L4.85398 3.22223L4.91188 2.86044L4.66663 2.60421L5.00554 2.55142L5.15711 2.22223L5.30867 2.55142L5.64758 2.60421L5.40236 2.86044L5.46025 3.22223L5.15711 3.05142Z" fill="white"/>
<path d="M5.15711 4.82919L4.85398 5.00002L4.91188 4.63821L4.66663 4.38198L5.00554 4.32919L5.15711 4.00002L5.30867 4.32919L5.64758 4.38198L5.40236 4.63821L5.46025 5.00002L5.15711 4.82919Z" fill="white"/>
<path d="M5.15711 6.60698L4.85398 6.77779L4.91188 6.41598L4.66663 6.15975L5.00554 6.10698L5.15711 5.77779L5.30867 6.10698L5.64758 6.15975L5.40236 6.41598L5.46025 6.77779L5.15711 6.60698Z" fill="white"/>
<path d="M5.15711 8.38475L4.85398 8.55556L4.91188 8.19377L4.66663 7.93754L5.00554 7.88475L5.15711 7.55556L5.30867 7.88475L5.64758 7.93754L5.40236 8.19377L5.46025 8.55556L5.15711 8.38475Z" fill="white"/>
<path d="M6.49048 9.27365L6.18735 9.44446L6.24525 9.08267L6 8.82644L6.33892 8.77364L6.49048 8.44446L6.64206 8.77364L6.98098 8.82644L6.73573 9.08267L6.79362 9.44446L6.49048 9.27365Z" fill="white"/>
</g>
<defs>
<clipPath id="clip0_14458_54129">
<rect width="20" height="20" fill="white"/>
</clipPath>
</defs>
</svg>
