<svg width="40" height="40" viewBox="0 0 40 40" fill="none" xmlns="http://www.w3.org/2000/svg">
<path d="M11.8127 14.143H10.6547L11.2391 12.5451H11.2607L11.8127 14.143Z" fill="white"/>
<path fill-rule="evenodd" clip-rule="evenodd" d="M8.4895 8.33337C7.0225 8.33337 5.83325 9.53261 5.83325 11.0119V22.6191H17.4999V19.0604C17.4999 18.6892 17.873 18.3882 18.3333 18.3882H19.9999C20.4602 18.3882 20.8333 18.6892 20.8333 19.0604V22.6191H22.4999V16.3718C22.4999 16.0006 22.873 15.6996 23.3333 15.6996H24.9999C25.4602 15.6996 25.8333 16.0006 25.8333 16.3718V22.6191H27.4999V12.3389C27.4999 11.9676 27.873 11.6667 28.3333 11.6667H29.9999C30.4602 11.6667 30.8333 11.9676 30.8333 12.3389V22.6191H34.1666V11.0119C34.1666 9.53261 32.9773 8.33337 31.5103 8.33337H8.4895ZM9.16659 16.7035V17.5H13.3333V16.7035H9.16659ZM13.2359 15.6215L12.0073 12.2501C11.8885 11.9242 11.7515 11.6667 11.2824 11.6667C10.8132 11.6667 10.6675 11.9231 10.5424 12.2501L9.25318 15.6215H10.1081L10.4058 14.82H12.0507L12.3267 15.6215H13.2359Z" fill="white"/>
<path d="M34.1666 24.4048H5.83325V25.2977C5.83325 26.777 7.0225 27.9762 8.4895 27.9762H19.1145V31.5477H12.9166V33.3334H27.0833V31.5477H21.7187V27.9762H31.5103C32.9773 27.9762 34.1666 26.777 34.1666 25.2977V24.4048Z" fill="white"/>
</svg>
