<svg width="40" height="40" viewBox="0 0 40 40" fill="none" xmlns="http://www.w3.org/2000/svg">
<path fill-rule="evenodd" clip-rule="evenodd" d="M12.4911 11.4819L15.3042 16.9696C17.105 20.4826 14.8782 24.239 11.3043 24.239C8.62871 24.239 6.70807 22.1337 6.66717 19.6014C6.65344 18.7511 6.85172 17.8527 7.30437 16.9696L11.3043 9.16663C17.1014 9.16663 22.8985 9.16666 28.6955 9.16666L32.6954 16.9696C34.3836 20.263 32.532 23.7704 29.3492 24.196C29.137 24.2244 28.9189 24.239 28.6955 24.239C26.0199 24.239 24.0993 22.1337 24.0584 19.6014C24.0447 18.7511 24.243 17.8527 24.6956 16.9696L27.5049 11.4893L21.1592 11.4819C21.1592 19.6014 21.7396 25.0362 24.6956 30.8333L15.3622 30.8333C18.2613 25.0362 18.8405 19.6014 18.8404 11.4819L12.4911 11.4819ZM11.3043 14.2499L9.36789 18.0274C9.08056 18.5879 8.96301 19.1204 8.97521 19.6014L13.6333 19.6014C13.6455 19.1204 13.528 18.5879 13.2406 18.0274L11.3043 14.2499ZM26.7591 18.0274L28.6955 14.2499L30.6319 18.0274C30.9192 18.5879 31.0368 19.1204 31.0246 19.6014L26.3665 19.6014C26.3543 19.1204 26.4718 18.5879 26.7591 18.0274Z" fill="white"/>
</svg>
