<svg width="32" height="32" viewBox="0 0 32 32" fill="none" xmlns="http://www.w3.org/2000/svg">
<circle cx="16" cy="16" r="16" fill="#19502E"/>
<g clip-path="url(#clip0)">
<g clip-path="url(#clip1)">
<path d="M16.0003 23.7515C19.7857 23.7515 22.8772 20.6286 22.8772 16.8062C22.8772 12.979 19.7869 9.86096 16.0003 9.86096C12.2161 9.86096 9.12457 12.979 9.12457 16.8062C9.12457 20.6286 12.2149 23.7515 16.0003 23.7515Z" fill="#008A52"/>
<path d="M16.0003 9.75302C12.1539 9.75302 9.01846 12.9195 9.01846 16.8038C9.01846 20.6831 12.1539 23.8533 16.0003 23.8545C19.8455 23.8533 22.9821 20.6831 22.9821 16.8038C22.9809 12.9208 19.8455 9.75302 16.0003 9.75302ZM14.721 21.4954V23.5235C14.4807 23.4762 14.2442 23.4168 14.0137 23.3453V17.2159H15.0259C15.2881 17.2159 15.471 17.2693 15.5771 17.3699C15.6844 17.4705 15.732 17.6512 15.732 17.913V20.7983C15.732 21.0589 15.6832 21.2396 15.5771 21.3402C15.4173 21.5002 15.1222 21.5002 14.8759 21.5002C14.8222 21.4954 14.7686 21.4954 14.721 21.4954ZM16.0003 23.6472C15.6698 23.6472 15.3442 23.6217 15.0259 23.5757V21.7924C15.493 21.7924 15.7978 21.6336 15.9417 21.3147V23.0956C15.9417 23.315 15.9759 23.4981 16.0442 23.6448C16.0296 23.646 16.0149 23.6472 16.0003 23.6472ZM17.9284 19.4454H17.2332V17.8633H16.932V23.1962H17.232V19.7399H17.9271V23.0944C17.9271 23.1974 17.9186 23.2871 17.904 23.3684C17.4149 23.5138 16.9027 23.6048 16.3747 23.6351C16.2527 23.4932 16.2369 23.275 16.2369 23.0956V17.9663C16.2369 17.6996 16.2905 17.5129 16.3918 17.4063C16.493 17.2996 16.6759 17.2475 16.9332 17.2475C17.1954 17.2475 17.5808 17.2099 17.7771 17.4063C17.8784 17.5129 17.9271 17.6996 17.9271 17.9663V19.4454H17.9284ZM20.1552 22.1997C19.9211 22.3852 19.6723 22.5573 19.4125 22.7113V19.7763H19.0955V22.8859C18.8564 23.0132 18.6076 23.1223 18.3528 23.2192V19.86C18.3528 19.5508 18.4271 19.3193 18.7418 19.2126L18.3942 17.3105H19.0942L19.2137 19.3872H19.2991L19.4174 17.3105H20.1552L19.7601 19.2126C20.093 19.3302 20.1564 19.5314 20.1564 19.86V22.1997H20.1552ZM18.2284 19.2041V18.0233L18.4369 19.0829C18.3491 19.1144 18.282 19.1556 18.2284 19.2041ZM20.4016 19.3969C20.3455 19.2599 20.2455 19.1483 20.0686 19.0829L20.4016 17.376V19.3969ZM22.7053 17.7542C22.7016 17.7845 22.6967 17.8172 22.6919 17.8488H21.5528V18.1239H21.7248C22.0528 18.1155 22.4187 18.1094 22.5955 18.3482C22.4479 18.9907 22.2114 19.5993 21.8955 20.1594V18.6792H21.554V20.7086C21.3235 21.0407 21.0662 21.3523 20.7833 21.6408C20.7699 21.653 20.7577 21.6663 20.7455 21.676V17.2959H22.704L22.7053 17.7542ZM18.0296 17.0171L18.0991 17.3602C17.9454 17.0826 17.6564 16.9432 17.232 16.9432H16.932C16.4222 16.9432 16.1113 17.1456 15.9942 17.5481C15.8844 17.125 15.5625 16.9153 15.0247 16.9153H13.7076V23.2399C12.7649 22.8943 11.9149 22.3415 11.2173 21.6384C9.99043 20.3982 9.22944 18.6865 9.22944 16.805C9.22944 14.9198 9.99043 13.2093 11.2173 11.9703C12.4441 10.7326 14.1368 9.96396 15.9991 9.96396C17.8625 9.96396 19.554 10.7326 20.7808 11.9703C22.0089 13.2105 22.7699 14.9223 22.7699 16.805C22.7699 16.8765 22.7687 16.9468 22.765 17.0183H18.0296V17.0171ZM14.721 20.8989H15.0259V17.8112H14.721V20.8989Z" fill="white"/>
<path d="M10.1685 13.0894L10.1795 13.3137L10.2112 13.5271L10.2636 13.7283L10.3246 13.9259L10.4039 14.1126L10.4953 14.292L10.5917 14.4678L10.7039 14.6339L10.8222 14.7927L10.9563 14.9527L11.2344 15.2607L11.5295 15.5492L11.8344 15.8426L12.1344 16.1287L12.4344 16.4221L12.7064 16.7251L12.8405 16.8852L12.9637 17.0452L13.0771 17.21L13.1734 17.3846L13.2698 17.5665L13.3442 17.758L13.4027 17.9508L13.4564 18.1569L13.4832 18.3654L13.4991 18.5884L13.4893 20.4566L13.4783 20.2335L13.4454 20.0214L13.3917 19.8189L13.3344 19.6213L13.2576 19.4358L13.1625 19.2479L13.0661 19.0782L12.9539 18.9085L12.8356 18.7485L12.7015 18.5884L12.4234 18.2841L12.1283 17.9871L11.8283 17.7059L11.5234 17.4174L11.2234 17.1191L10.9502 16.8112L10.8173 16.6609L10.6941 16.4912L10.5868 16.3263L10.4905 16.1505L10.399 15.9687L10.3124 15.7832L10.2551 15.5868L10.2063 15.3843L10.1746 15.1722L10.1588 14.9467L10.1685 13.0894Z" fill="white"/>
<path d="M9.85778 15.4522L9.87486 15.691L9.90535 15.9129L9.9651 16.1311L10.0297 16.3372L10.1212 16.5384L10.2175 16.7287L10.3249 16.9142L10.4468 17.0912L10.5761 17.2609L10.72 17.4307L11.0249 17.7507L11.3468 18.061L11.6834 18.3714L12.0115 18.6757L12.3322 18.9848L12.6371 19.3049L12.7822 19.4758L12.9103 19.6455L13.0347 19.8225L13.1408 20.008L13.2481 20.1983L13.3286 20.3996L13.392 20.6069L13.4517 20.8239L13.4835 21.0457L13.4993 21.2846L13.4895 23.2618L13.4725 23.0242L13.4408 22.8036L13.3871 22.5841L13.3176 22.378L13.2371 22.1768L13.131 21.9853L13.0286 21.7998L12.9042 21.624L12.7712 21.4543L12.6273 21.2846L12.3273 20.9633L12.0005 20.6493L11.6737 20.3438L11.342 20.0395L11.0151 19.7243L10.7151 19.3982L10.5651 19.2382L10.4371 19.0636L10.3127 18.883L10.2066 18.7011L10.109 18.506L10.0188 18.3096L9.95535 18.0974L9.90169 17.8853L9.86876 17.6634L9.85291 17.4197L9.85778 15.4522Z" fill="white"/>
<path d="M22.6843 14.3718H18.2842C18.2403 14.2627 18.172 14.1924 18.0964 14.1924C18.0196 14.1924 17.9513 14.2651 17.9074 14.3718H17.7489C17.7062 14.2627 17.6379 14.1924 17.5598 14.1924C17.483 14.1924 17.4147 14.2651 17.3708 14.3718H17.2464C17.3403 14.2445 17.3964 14.0918 17.3964 13.9257C17.3964 13.4844 17.0793 13.1268 16.5976 13.1268C16.1159 13.1268 15.7256 13.4844 15.7256 13.9257C15.7256 14.1269 15.8781 14.3112 15.9293 14.4494C15.8488 14.4676 15.7891 14.5379 15.7891 14.624C15.7891 14.7161 15.8574 14.7889 15.9452 14.801C15.8964 14.9719 15.7269 15.0968 15.7269 15.3671C15.7269 15.8084 16.1171 16.166 16.5988 16.166C17.0818 16.166 17.3976 15.8084 17.3976 15.3671C17.3976 15.201 17.3415 15.0483 17.2476 14.9222H17.3708C17.4147 15.0313 17.4842 15.0992 17.5598 15.0992C17.6367 15.0992 17.7062 15.0289 17.7489 14.9222H17.9062C17.9501 15.0313 18.0184 15.0992 18.0952 15.0992C18.1708 15.0992 18.2403 15.0289 18.283 14.9222H21.5135V15.1004H21.3623V15.4605H21.5135L21.6562 15.6581L21.3623 15.6144V16.0969H21.6562V15.8787H22.0904V16.0981H22.3843V15.6144L22.0904 15.6581L22.2331 15.4605H22.3843V15.1004H22.2331V14.9222H22.6806C22.7941 14.9222 22.888 14.8277 22.888 14.7113V14.584C22.8916 14.4676 22.7977 14.3718 22.6843 14.3718ZM16.7427 14.3161C16.8805 14.3209 16.9903 14.4615 16.9903 14.6397C16.9903 14.8167 16.8805 14.9586 16.7427 14.9634L16.6683 15.138C16.8598 15.138 17.0793 15.1635 17.0793 15.3853C17.0793 15.6557 16.9025 15.8727 16.5964 15.8727C16.2903 15.8727 16.0427 15.6544 16.0427 15.3853C16.0427 15.1744 16.1196 15.1441 16.333 15.075L16.2708 14.9501L16.4061 14.8264C16.3305 14.7937 16.2769 14.7198 16.2769 14.6313C16.2769 14.5428 16.3305 14.4676 16.4074 14.4349L16.2891 14.3464L16.333 14.2179C16.1208 14.1488 16.0427 14.1197 16.0427 13.9075C16.0427 13.6372 16.2915 13.4202 16.5976 13.4202C16.9037 13.4202 17.0793 13.6384 17.0793 13.9075C17.0793 14.1318 16.8915 14.1548 16.6683 14.1548L16.7427 14.3161Z" fill="#FFCA38"/>
<path d="M15.6895 15.3646C15.6907 15.1004 15.8419 14.9634 15.898 14.8252C15.8139 14.7973 15.7517 14.7185 15.7517 14.6227C15.7517 14.5354 15.8053 14.4578 15.8797 14.4263C15.8236 14.3002 15.6919 14.1257 15.6895 13.9256C15.6895 13.4613 16.0992 13.0904 16.5993 13.0904C17.1005 13.0904 17.4359 13.4686 17.4371 13.9256C17.4371 14.0747 17.3944 14.2142 17.3188 14.3354H17.3468C17.3932 14.2323 17.4651 14.1584 17.5602 14.156C17.6554 14.1596 17.7273 14.2323 17.7737 14.3354H17.8822C17.9285 14.2323 18.0017 14.1584 18.0968 14.156C18.1895 14.1596 18.2627 14.2323 18.309 14.3354H22.6847V14.3718V14.4069H18.259L18.2505 14.3839C18.209 14.2808 18.1481 14.2263 18.0956 14.2287C18.0444 14.2263 17.9822 14.2808 17.942 14.3839L17.9322 14.4081H17.7237L17.7139 14.3839C17.6737 14.2808 17.6115 14.2263 17.5602 14.2287C17.509 14.2263 17.4468 14.2808 17.4066 14.3839L17.3968 14.4081H17.1749L17.2188 14.3487C17.309 14.2263 17.3615 14.082 17.3615 13.9244C17.3602 13.5001 17.0615 13.1631 16.5993 13.1619C16.1358 13.1619 15.7651 13.505 15.7639 13.9244C15.7627 14.1087 15.909 14.2881 15.9651 14.4348L15.9797 14.4748L15.9383 14.4833C15.8749 14.4978 15.8261 14.5548 15.8273 14.6227C15.8273 14.6942 15.881 14.7512 15.9505 14.7609L15.9931 14.7682L15.981 14.807C15.9249 14.9949 15.7627 15.1101 15.7639 15.3634C15.7651 15.7829 16.1358 16.1247 16.5993 16.126C17.0602 16.1247 17.3602 15.7877 17.3615 15.3634C17.3615 15.2058 17.309 15.0603 17.2188 14.9391L17.1749 14.8797H17.3968L17.4066 14.9015C17.4468 15.007 17.509 15.0616 17.5602 15.0591C17.6115 15.0616 17.6737 15.007 17.7151 14.9028L17.7237 14.8809H17.9322L17.9432 14.9028C17.9822 15.007 18.0444 15.0616 18.0956 15.0591C18.1468 15.0616 18.209 15.007 18.2505 14.9028L18.259 14.8809H21.5518V15.1343H21.4006V15.4192H21.5323L21.7384 15.7029L21.4006 15.6532V16.0544H21.6213V15.8362H22.1311V16.0544H22.3506V15.6532L22.014 15.7017L22.2189 15.4192H22.3506V15.1331H22.1993V14.8797H22.6847C22.7774 14.8797 22.8542 14.8009 22.8555 14.7051V14.5791C22.8555 14.4833 22.7786 14.4057 22.6859 14.4057V14.3693V14.333C22.8213 14.333 22.9298 14.4445 22.9298 14.5791V14.7051C22.9298 14.8397 22.8201 14.9512 22.6847 14.9512H22.2737V15.0579H22.425V15.4919H22.2567L22.1762 15.6022L22.4262 15.5659V16.1296H22.0579V15.9102H21.6957V16.1308H21.3274V15.5671L21.5774 15.6035L21.4981 15.4931H21.3274V15.0591H21.4786V14.9525H18.3115C18.2651 15.0555 18.1932 15.1295 18.0981 15.1319C18.0029 15.1295 17.931 15.0555 17.8834 14.9525H17.7761C17.7298 15.0555 17.6578 15.1295 17.5627 15.1319C17.4676 15.1295 17.3956 15.0555 17.3493 14.9525H17.3212C17.3956 15.0737 17.4395 15.2131 17.4395 15.3622C17.4395 15.8217 17.1054 16.1963 16.6017 16.1975C16.0992 16.1999 15.6895 15.8302 15.6895 15.3646ZM16.5993 15.909C16.2761 15.909 16.0102 15.6798 16.009 15.3828C16.009 15.2749 16.0297 15.1998 16.0858 15.1476C16.1334 15.104 16.1968 15.0797 16.2822 15.0519L16.2273 14.9403L16.3468 14.8324C16.2834 14.7864 16.2432 14.7112 16.2432 14.63C16.2432 14.5475 16.2822 14.4748 16.3444 14.43L16.2492 14.3572L16.2895 14.2372C16.2017 14.2093 16.1358 14.1851 16.0858 14.139C16.0297 14.0881 16.009 14.0129 16.009 13.9038C16.0102 13.6117 16.2773 13.3789 16.5993 13.3789C16.7602 13.3789 16.8932 13.4371 16.9822 13.5341C17.07 13.6298 17.1163 13.762 17.1163 13.9038C17.1176 14.0275 17.059 14.1087 16.9724 14.1451C16.9029 14.1766 16.8176 14.1851 16.7273 14.1875L16.7676 14.2784C16.92 14.3002 17.0285 14.4554 17.0285 14.636C17.0285 14.8155 16.92 14.9719 16.7676 14.9937L16.7236 15.0991C16.8054 15.1016 16.8883 15.1101 16.9602 15.1404C17.048 15.1767 17.1176 15.258 17.1151 15.3816C17.1151 15.5247 17.0688 15.6568 16.981 15.7526C16.8932 15.8508 16.7615 15.909 16.5993 15.909ZM16.0822 13.905C16.0822 14.0093 16.1005 14.0541 16.1358 14.0869C16.1724 14.1208 16.2407 14.1463 16.3468 14.1802L16.3822 14.1923L16.3346 14.3318L16.4822 14.4433L16.4236 14.47C16.359 14.4954 16.3163 14.5572 16.3163 14.6312C16.3163 14.7039 16.359 14.7633 16.4236 14.7924L16.4773 14.8167L16.3188 14.9585L16.3871 15.0967L16.3456 15.1101C16.2395 15.1428 16.1712 15.1707 16.1346 15.2034C16.0992 15.2361 16.0822 15.2822 16.081 15.384C16.081 15.6301 16.309 15.835 16.598 15.8362C16.8834 15.8338 17.0395 15.6386 17.0419 15.384C17.0407 15.2858 16.9993 15.2422 16.931 15.2107C16.8602 15.1816 16.7615 15.1743 16.6688 15.1743H16.6127L16.7188 14.9258L16.7419 14.9246C16.8517 14.9234 16.9541 14.7997 16.9541 14.6397C16.9541 14.4784 16.8529 14.356 16.7419 14.3548L16.7432 14.3184L16.7773 14.3027L16.7432 14.316L16.7419 14.3524H16.7188L16.6114 14.1172H16.67C16.7797 14.1184 16.8785 14.1111 16.9432 14.0808C17.0066 14.0517 17.0419 14.0081 17.0432 13.9062C17.0407 13.6517 16.8858 13.4577 16.5993 13.4553C16.309 13.4553 16.0822 13.6601 16.0822 13.905Z" fill="white"/>
<path d="M13.6116 15.6494V16.7441L15.2507 15.1438V14.0588L13.6116 15.6494Z" fill="#FFCA38"/>
<path d="M13.5734 15.6496V15.6326L15.2868 13.9693V15.1562L13.5734 16.8316V15.6496ZM13.6478 16.657L15.2124 15.1283V14.1451L13.6478 15.6653V16.657Z" fill="white"/>
<path d="M13.6116 11.6505V12.7452L15.2507 11.145V10.0587L13.6116 11.6505Z" fill="#FFCA38"/>
<path d="M13.5734 11.6504V11.6347L15.2868 9.9726V11.1594L13.5734 12.8336V11.6504ZM13.6478 12.6578L15.2124 11.1291V10.146L13.6478 11.6662V12.6578Z" fill="white"/>
<path d="M12.2961 9.57729V7.27271H12.4717V7.33211V7.27271H12.5461V9.57729H12.2961Z" fill="white"/>
<path d="M13.6116 12.984V14.0787L15.2507 12.4773V11.3923L13.6116 12.984Z" fill="#FFCA38"/>
<path d="M13.5734 12.9825V12.9667L15.2868 11.3034V12.4915L13.5734 14.1669V12.9825ZM13.6478 13.9899L15.2124 12.4612V11.478L13.6478 12.9982V13.9899Z" fill="white"/>
<path d="M12.8499 10.0077V7.27271H13.0267V7.33211V7.27271H13.1011V10.0077H12.8499Z" fill="white"/>
<path d="M12.4723 7.33191H12.3711V9.51768H12.4723V7.33191Z" fill="#FFCA38"/>
<path d="M13.0272 7.33191H12.9247V9.94805H13.0272V7.33191Z" fill="#FFCA38"/>
<path d="M13.4053 10.2925V7.27271H13.5809V7.33211V7.27271H13.6553V10.2925H13.4053Z" fill="white"/>
<path d="M13.6116 14.3186V15.4109L15.2507 13.8106V12.7244L13.6116 14.3186Z" fill="#FFCA38"/>
<path d="M13.5734 14.3186V14.3005L15.2868 12.6372V13.8252L13.5734 15.4994V14.3186ZM13.6478 15.3248L15.2124 13.7949V12.8117L13.6478 14.332V15.3248Z" fill="white"/>
<path d="M13.5811 7.33191H13.4798V10.2329H13.5811V7.33191Z" fill="#FFCA38"/>
<path d="M13.9596 10.061V7.27271H14.1352V7.33211V7.27271H14.2096V10.061H13.9596Z" fill="white"/>
<path d="M13.4502 15.6494V16.7441L11.8111 15.1438V14.0588L13.4502 15.6494Z" fill="#FFCA38"/>
<path d="M11.7733 15.1598V13.9717L13.477 15.6241L13.4501 15.6495L13.477 15.6241L13.4879 15.635V16.8327L11.7733 15.1598ZM11.8477 15.1282L13.4123 16.657V15.6665L11.8477 14.1463V15.1282Z" fill="white"/>
<path d="M14.5134 9.63426V7.27271H14.6951V7.33211V7.27271H14.7695V9.63426H14.5134Z" fill="white"/>
<path d="M14.1352 7.33191H14.0339V10.0014H14.1352V7.33191Z" fill="#FFCA38"/>
<path d="M15.0369 9.23299V7.27271H15.2125V7.33211V7.27271H15.2869V9.23299H15.0369Z" fill="white"/>
<path d="M14.6951 7.33191H14.5878V9.57466H14.6951V7.33191Z" fill="#FFCA38"/>
<path d="M15.2129 7.33191H15.1116V9.17339H15.2129V7.33191Z" fill="#FFCA38"/>
<path d="M13.4502 11.6505V12.7452L11.8111 11.145V10.0587L13.4502 11.6505Z" fill="#FFCA38"/>
<path d="M11.7733 11.1594V9.9726L13.477 11.6237L13.4501 11.6492L13.477 11.6237L13.4879 11.6347V12.8336L11.7733 11.1594ZM11.8477 11.1303L13.4123 12.6591V11.6674L11.8477 10.1472V11.1303Z" fill="white"/>
<path d="M13.4502 12.984V14.0787L11.8111 12.4773V11.3923L13.4502 12.984Z" fill="#FFCA38"/>
<path d="M11.7733 12.4942V11.3061L13.477 12.9585L13.4501 12.9827L13.477 12.9573L13.4879 12.9682V14.1671L11.7733 12.4942ZM11.8477 12.4627L13.4123 13.9914V13.0021L11.8477 11.4807V12.4627Z" fill="white"/>
<path d="M13.4502 14.3186V15.4109L11.8111 13.8106V12.7244L13.4502 14.3186Z" fill="#FFCA38"/>
<path d="M11.7733 13.8263V12.6382L13.477 14.2906L13.4501 14.3185L13.477 14.2918L13.4879 14.3027V15.5017L11.7733 13.8263ZM11.8477 13.7948L13.4123 15.3247V14.333L11.8477 12.8128V13.7948Z" fill="white"/>
<path d="M11.7733 9.21966V7.27271H11.955V7.33211V7.27271H12.0294V9.21966H11.7733Z" fill="white"/>
<path d="M11.9549 7.33191H11.8475V9.16127H11.9549V7.33191Z" fill="#FFCA38"/>
<path d="M13.6116 10.3166V11.4113L15.2507 9.81111V8.7261L13.6116 10.3166Z" fill="#FFCA38"/>
<path d="M13.5734 10.3169V10.3011L15.2868 8.63782V9.82587L13.5734 11.5001V10.3169ZM13.6478 11.3243L15.2124 9.79556V8.81239L13.6478 10.3314V11.3243Z" fill="white"/>
<path d="M13.4502 10.3166V11.4113L11.8111 9.81111V8.7261L13.4502 10.3166Z" fill="#FFCA38"/>
<path d="M11.7733 9.82706V8.63901L13.4758 10.2914L13.4489 10.3156L13.4758 10.2914L13.4867 10.3023V11.5012L11.7733 9.82706ZM11.8477 9.79554L13.4123 11.3243V10.3338L11.8477 8.81358V9.79554Z" fill="white"/>
</g>
</g>
<defs>
<clipPath id="clip0">
<rect width="17.4545" height="17.4545" fill="white" transform="translate(7.27274 7.27271)"/>
</clipPath>
<clipPath id="clip1">
<rect width="13.9636" height="16.5818" fill="white" transform="translate(9.01846 7.27271)"/>
</clipPath>
</defs>
</svg>
