<svg width="32" height="32" viewBox="0 0 32 32" fill="none" xmlns="http://www.w3.org/2000/svg">
<circle cx="16" cy="16" r="16" fill="#57B9E1"/>
<g clip-path="url(#clip0)">
<g clip-path="url(#clip1)">
<path d="M21.9088 16.4378C21.9088 18.5614 20.804 20.4671 19.024 21.4099L18.616 21.6017C18.4815 21.664 18.3329 21.6994 18.1905 21.6994C17.9125 21.6994 17.6918 21.5813 17.5608 21.3669C17.4561 21.1891 17.4272 20.9973 17.4666 20.7775C17.529 20.4741 17.7665 20.3211 17.8368 20.2832C18.8869 19.8064 19.5615 18.7341 19.5615 17.5499V14.452C19.5615 13.2662 18.8895 12.1964 17.8499 11.7256C17.8479 11.7231 17.5376 11.5742 17.4663 11.2224C17.4266 11.0033 17.4558 10.8099 17.5605 10.6349C17.6915 10.4212 17.9122 10.3016 18.1901 10.3016C18.3326 10.3016 18.4811 10.334 18.615 10.3973C18.615 10.3973 18.9995 10.5796 19.0145 10.5856C20.8027 11.5338 21.9091 13.4395 21.9091 15.5621V16.4378H21.9088ZM14.1617 20.2829C14.2329 20.3208 14.4696 20.4738 14.5328 20.7772C14.5732 20.997 14.5443 21.1888 14.4387 21.3666C14.3077 21.5813 14.087 21.699 13.809 21.699C13.6665 21.699 13.5187 21.6637 13.3841 21.6014L12.9742 21.4096C11.1948 20.4664 10.09 18.5611 10.09 16.4375V15.5621C10.09 13.4392 11.1974 11.5338 12.9837 10.5856C13.0003 10.5796 13.3838 10.3973 13.3838 10.3973C13.5183 10.334 13.6662 10.3016 13.8077 10.3016C14.0847 10.3016 14.3074 10.4212 14.4384 10.6349C14.544 10.8099 14.5729 11.0036 14.5325 11.2224C14.4622 11.5742 14.1525 11.7231 14.149 11.7256C13.1103 12.1964 12.4393 13.2662 12.4393 14.452V17.5496C12.4396 18.7338 13.1116 19.8061 14.1617 20.2829ZM15.9993 7.27271C11.1802 7.27271 7.27231 11.1795 7.27231 15.9995C7.27231 20.8205 11.1802 24.7273 15.9993 24.7273C20.8193 24.7273 24.7272 20.8205 24.7272 15.9995C24.7269 11.1795 20.8193 7.27271 15.9993 7.27271Z" fill="white"/>
</g>
</g>
<defs>
<clipPath id="clip0">
<rect width="17.4545" height="17.4545" fill="white" transform="translate(7.27231 7.27271)"/>
</clipPath>
<clipPath id="clip1">
<rect width="17.4545" height="17.4545" fill="white" transform="translate(7.27231 7.27271)"/>
</clipPath>
</defs>
</svg>
