<svg width="40" height="40" viewBox="0 0 40 40" fill="none" xmlns="http://www.w3.org/2000/svg">
<path fill-rule="evenodd" clip-rule="evenodd" d="M8.33317 9.16699C7.4127 9.16699 6.6665 9.91318 6.6665 10.8337V22.5003C6.6665 23.4208 7.4127 24.167 8.33317 24.167H31.6665C32.587 24.167 33.3332 23.4208 33.3332 22.5003V10.8337C33.3332 9.91318 32.587 9.16699 31.6665 9.16699H8.33317ZM19.9998 20.0003C21.8408 20.0003 23.3332 18.5079 23.3332 16.667C23.3332 14.826 21.8408 13.3337 19.9998 13.3337C18.1589 13.3337 16.6665 14.826 16.6665 16.667C16.6665 18.5079 18.1589 20.0003 19.9998 20.0003ZM8.33317 22.5003H12.4998L8.33317 18.3337V22.5003ZM27.4998 10.8336H31.6665V15.0003L27.4998 10.8336Z" fill="white"/>
<path d="M31.6665 25.8337V26.667C31.6665 27.1272 31.2934 27.5003 30.8332 27.5003H9.1665C8.70627 27.5003 8.33317 27.1272 8.33317 26.667V25.8337H31.6665Z" fill="white"/>
<path d="M29.9998 30.0003V29.167H9.99984V30.0003C9.99984 30.4606 10.3729 30.8337 10.8332 30.8337H29.1665C29.6267 30.8337 29.9998 30.4606 29.9998 30.0003Z" fill="white"/>
</svg>
