<svg width="32" height="32" viewBox="0 0 32 32" fill="none" xmlns="http://www.w3.org/2000/svg">
<circle cx="16" cy="16" r="16" fill="#E7E9EB"/>
<path d="M14.2871 16.3828H15.7373C17.2754 16.3828 18.1807 17.0684 18.1719 18.2988C18.1719 19.3711 17.2578 20.1094 15.9307 20.1094C14.5332 20.1094 13.6191 19.4062 13.5312 18.3691H11C11.1143 20.6982 13.0654 22.2451 15.9307 22.2451C18.875 22.2451 20.8701 20.7158 20.8701 18.4131C20.8701 16.6729 19.6396 15.5566 17.7588 15.3809V15.3281C19.2529 15.0205 20.4043 13.9746 20.4043 12.3574C20.4043 10.3271 18.5938 9 15.9131 9C13.2588 9 11.4131 10.4854 11.2812 12.8057H13.7158C13.7949 11.707 14.665 11.0391 15.9131 11.0391C17.1787 11.0391 17.8906 11.6982 17.8906 12.7354C17.8906 13.7725 17.0293 14.4932 15.7021 14.4932H14.2871V16.3828Z" fill="#0B1F35"/>
</svg>
