<svg width="41" height="40" viewBox="0 0 41 40" fill="none" xmlns="http://www.w3.org/2000/svg">
<path fill-rule="evenodd" clip-rule="evenodd" d="M29.5848 16.5967C31.1044 16.9245 32.2109 18.3039 32.1028 19.8942L31.688 26.0057V27.2701C31.688 28.3176 30.8228 29.1667 29.7556 29.1667C28.6883 29.1667 27.8232 28.3176 27.8232 27.2701V26.0057H12.3639V27.2701C12.3639 28.3176 11.4988 29.1667 10.4315 29.1667C9.36428 29.1667 8.49912 28.3176 8.49912 27.2701L8.49886 26.0057L8.08372 19.8942C7.97567 18.3035 9.08259 16.924 10.6027 16.5965C11.1564 14.7944 11.4827 13.8294 12.0592 13.0837C12.7225 12.2259 13.6201 11.5704 14.6479 11.1934C15.6295 10.8333 16.7827 10.8333 19.0891 10.8333H21.0984C23.4047 10.8333 24.5579 10.8333 25.5395 11.1934C26.5673 11.5704 27.465 12.2259 28.1282 13.0837C28.7048 13.8294 29.0311 14.7945 29.5848 16.5967ZM14.3547 13.6408C13.8048 14.1734 13.5393 14.9566 13.0082 16.523H27.1792C26.6451 14.9533 26.3781 14.1684 25.8253 13.6356C25.5918 13.4106 25.3247 13.2217 25.0333 13.0757C24.3433 12.7299 23.5002 12.7299 21.814 12.7299H18.3673C16.6853 12.7299 15.8442 12.7299 15.1557 13.0739C14.8606 13.2213 14.5905 13.4125 14.3547 13.6408ZM27.8233 22.8448C28.8906 22.8448 29.7557 21.9957 29.7557 20.9483C29.7557 19.9008 28.8906 19.0517 27.8233 19.0517C26.7561 19.0517 25.8909 19.9008 25.8909 20.9483C25.8909 21.9957 26.7561 22.8448 27.8233 22.8448ZM12.3641 22.8448C13.4313 22.8448 14.2965 21.9957 14.2965 20.9483C14.2965 19.9008 13.4313 19.0517 12.3641 19.0517C11.2969 19.0517 10.4317 19.9008 10.4317 20.9483C10.4317 21.9957 11.2969 22.8448 12.3641 22.8448Z" fill="white"/>
<path d="M6.24446 12.4138L10.4315 12.7298L9.14329 15.8908L7.94703 15.4653C7.20086 15.1999 6.37972 14.9024 6.07413 14.1835C5.80797 13.5574 5.83778 12.8131 6.24446 12.4138Z" fill="white"/>
<path d="M33.9422 12.4138L29.7557 12.7299L31.0439 15.8908L32.2401 15.4653C32.9862 15.1999 33.8074 14.9024 34.1129 14.1836C34.379 13.5574 34.3491 12.8131 33.9422 12.4138Z" fill="white"/>
</svg>
