<svg width="40" height="40" viewBox="0 0 40 40" fill="none" xmlns="http://www.w3.org/2000/svg">
<path d="M10.9794 16.643L9.82136 16.643L10.4057 15.045L10.4274 15.045L10.9794 16.643Z" fill="white"/>
<path fill-rule="evenodd" clip-rule="evenodd" d="M5.83325 32.5L15.8333 32.5L15.8333 25C15.8333 24.5398 16.2064 24.1667 16.6666 24.1667L19.9999 24.1667C20.4602 24.1667 20.8333 24.5398 20.8333 25L20.8333 32.5L25.6666 32.5L25.6666 7.5L8.07292 11.1961C6.76656 11.4706 5.83325 12.6024 5.83325 13.9123L5.83325 32.5ZM8.33325 19.2035L8.33325 20L12.4999 20L12.4999 19.2035L8.33325 19.2035ZM12.4025 18.1214L11.174 14.7501C11.0552 14.4241 10.9182 14.1667 10.449 14.1667C9.97984 14.1667 9.83414 14.4231 9.70909 14.7501L8.41985 18.1214L9.2748 18.1214L9.57244 17.32L11.2174 17.32L11.4934 18.1214L12.4025 18.1214Z" fill="white"/>
<path d="M34.1666 20C34.1666 18.4659 32.8981 17.2222 31.3333 17.2222L28.4999 17.2222L28.4999 32.5L34.1666 32.5L34.1666 20Z" fill="white"/>
</svg>
