<svg version="1.1" id="Слой_1" xmlns="http://www.w3.org/2000/svg" x="0" y="0" viewBox="0 0 40 40" xml:space="preserve"><style>.st0{fill:#6f7985}.st1{fill:#ef3124}</style><path class="st0" d="M21.3 30.2V38H6V25c0-2.7 1.9-5 4.3-5H12v-2h-1.7C6.8 18 4 21.2 4 25v15h19.3v-9.8h-2z"/><path class="st1" d="M27.7 20c0 .9-.7 1.7-1.7 1.7-.9 0-1.7-.7-1.7-1.7 0-.9.7-1.7 1.7-1.7.9 0 1.7.8 1.7 1.7"/><path class="st0" d="M36 10.8H16c-2.2 0-4 1.8-4 4v11.4c0 2.2 1.8 4 4 4h5.3v9.7h9.3v-9.7H36c2.2 0 4-1.8 4-4V14.8c0-2.2-1.8-4-4-4m-7.4 27.1h-5.3v-9.2c0-1.4 1.2-2.6 2.6-2.6h.1c1.4 0 2.6 1.2 2.6 2.6v9.2zM38 26.2c0 1.1-.9 2-2 2h-5.4c-.3-2.3-2.2-4.1-4.5-4.1H26c-2.4 0-4.3 1.8-4.5 4.1H16c-1.1 0-2-.9-2-2V14.8c0-1.1.9-2 2-2h20c1.1 0 2 .9 2 2v11.4z"/><path class="st1" d="M39 40H1c-.5 0-1-.4-1-1 0-.5.4-1 1-1h38c.5 0 1 .4 1 1s-.4 1-1 1"/><path class="st0" d="M12 14.9c-1.5-.8-2.6-2.3-2.6-4.1 0-2.5 2.1-4.6 4.6-4.6 2.5 0 4.6 2.1 4.6 4.6h2c0-3.6-3-6.6-6.6-6.6-3.6 0-6.6 3-6.6 6.6 0 2.9 1.9 5.4 4.6 6.3v-2.2z"/></svg>