<svg width="40" height="40" viewBox="0 0 40 40" fill="none" xmlns="http://www.w3.org/2000/svg">
<path d="M19.9999 20.8333C20.9204 20.8333 21.6666 20.0871 21.6666 19.1666C21.6666 18.2462 20.9204 17.5 19.9999 17.5C19.0794 17.5 18.3332 18.2462 18.3332 19.1666C18.3332 20.0871 19.0794 20.8333 19.9999 20.8333Z" fill="white"/>
<path fill-rule="evenodd" clip-rule="evenodd" d="M8.33329 8.33337C7.41282 8.33337 6.66663 9.07957 6.66663 10V28.3334C6.66663 29.2538 7.41282 30 8.33329 30H9.99996V31.6667C9.99996 32.1269 10.3731 32.5 10.8333 32.5H14.1666C14.6269 32.5 15 32.1269 15 31.6667V30H25V31.6667C25 32.1269 25.3731 32.5 25.8333 32.5H29.1666C29.6269 32.5 30 32.1269 30 31.6667V30H31.6666C32.5871 30 33.3333 29.2539 33.3333 28.3334V10C33.3333 9.07957 32.5871 8.33337 31.6666 8.33337H8.33329ZM19.1666 13.3924C18.1783 13.5337 17.2699 13.9228 16.5064 14.4947L17.6428 15.6311C17.9683 15.9566 17.9683 16.4842 17.6428 16.8096C17.3174 17.1351 16.7897 17.1351 16.4643 16.8096L15.3279 15.6732C14.756 16.4367 14.367 17.3451 14.2256 18.3333H15.8332C16.2935 18.3333 16.6666 18.7064 16.6666 19.1666C16.6666 19.6269 16.2935 20 15.8332 20H14.2256C14.367 20.9882 14.756 21.8965 15.3279 22.6601L16.4643 21.5237C16.7897 21.1982 17.3173 21.1982 17.6428 21.5237C17.9682 21.8491 17.9682 22.3767 17.6428 22.7022L16.5064 23.8386C17.2699 24.4105 18.1783 24.7995 19.1666 24.9409V23.3333C19.1666 22.8731 19.5396 22.5 19.9999 22.5C20.4601 22.5 20.8332 22.8731 20.8332 23.3333V24.9409C21.8215 24.7995 22.7298 24.4105 23.4933 23.8387L22.3569 22.7023C22.0315 22.3768 22.0315 21.8492 22.3569 21.5237C22.6824 21.1983 23.21 21.1983 23.5354 21.5237L24.6718 22.6602C25.2437 21.8966 25.6328 20.9882 25.7741 20H24.1666C23.7063 20 23.3332 19.6269 23.3332 19.1666C23.3332 18.7064 23.7063 18.3333 24.1666 18.3333H25.7741C25.6328 17.345 25.2437 16.4367 24.6718 15.6731L23.5354 16.8096C23.2099 17.135 22.6823 17.135 22.3569 16.8096C22.0314 16.4841 22.0314 15.9565 22.3569 15.6311L23.4933 14.4946C22.7298 13.9228 21.8215 13.5337 20.8332 13.3924V15C20.8332 15.4602 20.4601 15.8333 19.9999 15.8333C19.5396 15.8333 19.1666 15.4602 19.1666 15V13.3924ZM11.6666 19.1667L9.16663 21.6667V16.6667L11.6666 19.1667Z" fill="white"/>
</svg>
