<svg width="40" height="40" viewBox="0 0 40 40" fill="none" xmlns="http://www.w3.org/2000/svg">
<path d="M33.3335 10.2302C33.3335 11.8988 32.0997 13.3103 30.4461 13.5335L27.0835 13.9875V22.2935C27.0835 23.0201 26.6299 23.6693 25.9476 23.9192C21.8384 25.4244 17.3286 25.4244 13.2194 23.9192C12.5371 23.6693 12.0835 23.0201 12.0835 22.2935V13.9875L8.72087 13.5336C7.06727 13.3103 5.8335 11.8988 5.8335 10.2302V10L33.3335 10V10.2302Z" fill="white"/>
<path d="M29.5835 16.1717V25.5466C28.8362 26.2257 28.3335 27.408 28.3335 28.3333C28.3335 29.714 29.4528 30 30.8335 30C32.2142 30 33.3335 29.714 33.3335 28.3333C33.3335 27.408 32.8307 26.2257 32.0835 25.5466V15.6787C31.671 15.8362 31.2348 15.9488 30.7806 16.0101L29.5835 16.1717Z" fill="white"/>
</svg>
