<svg width="40" height="40" viewBox="0 0 40 40" fill="none" xmlns="http://www.w3.org/2000/svg">
<path fill-rule="evenodd" clip-rule="evenodd" d="M21.1783 25.5215C21.1783 23.9582 23.3332 23.7098 23.6554 25.385C23.708 25.6583 23.8318 25.9227 24.0593 26.079C24.8662 26.6333 25.7717 27.2048 26.6919 27.502C27.3555 27.7753 28.1158 27.9676 28.7912 27.8874C28.8203 27.8839 28.8486 27.8789 28.8761 27.8724C29.7643 27.7243 30.4418 26.9429 30.4418 26.0011C30.4418 25.6747 30.3605 25.3676 30.2172 25.0995C30.1017 24.8936 29.9658 24.701 29.8381 24.503C29.7405 24.3518 29.5492 24.2945 29.3862 24.3678C29.1103 24.4918 28.8345 24.6142 28.5602 24.7359C28.1649 24.9114 27.7715 25.086 27.3862 25.2617C27.1837 25.354 26.9959 25.4396 26.7781 25.45C26.6402 25.4566 26.4902 25.4332 26.3169 25.3621C25.9209 25.158 25.6205 24.7934 25.6205 24.2928V21.8345C33.3203 22.4493 35.2633 13.2317 31.4133 8.6229L27.0646 13.383C26.6151 13.875 26.4156 14.5426 26.2628 15.1949C26.1058 15.8651 25.7111 16.6113 24.732 16.6113C23.2513 16.6113 22.9551 15.229 22.9551 13.5389C22.9551 10.3141 25.4724 10.6205 26.5089 11.0814C27.2493 9.69878 26.1078 8.84476 25.1551 8.45356C22.659 7.70167 20.3031 10.6205 20.007 13.2319C19.7108 10.6205 17.3416 7.70167 14.8455 8.45356C13.8928 8.84476 12.7513 9.69878 13.4917 11.0814C14.5282 10.6205 17.0455 10.3141 17.0455 13.5389C17.0455 15.229 16.7493 16.6113 15.2686 16.6113C14.2895 16.6113 13.8949 15.8651 13.7379 15.1949C13.585 14.5426 13.3855 13.875 12.936 13.383L8.58731 8.6229C4.73738 13.2317 6.68031 22.4493 14.3802 21.8345V24.2978C14.3782 24.7955 14.079 25.1582 13.6848 25.3617C13.511 25.4331 13.3607 25.4566 13.2225 25.45C13.0047 25.4396 12.8169 25.354 12.6145 25.2617C12.229 25.0859 11.8366 24.9118 11.4412 24.7363C11.1666 24.6144 10.8906 24.4919 10.6144 24.3678C10.4515 24.2945 10.2601 24.3518 10.1626 24.503C10.0348 24.701 9.89891 24.8936 9.78344 25.0995C9.64016 25.3676 9.5588 25.6747 9.5588 26.0011C9.5588 26.9429 10.2363 27.7243 11.1245 27.8724C11.1521 27.8789 11.1804 27.8839 11.2094 27.8874C11.8848 27.9676 12.6452 27.7753 13.3087 27.502C14.229 27.2048 15.1344 26.6333 15.9414 26.079C16.1668 25.9242 16.2964 25.6627 16.3498 25.392C16.672 23.7169 18.8224 23.9582 18.8224 25.5215C18.8224 26.136 18.5262 26.5971 17.7859 27.2116L15.8134 28.5759C15.2102 28.9931 15.1015 29.8636 15.6862 30.3072C16.979 31.2879 18.4823 31.6667 19.9937 31.6667C21.5055 31.6667 23.0172 31.2877 24.3138 30.3064C24.899 29.8636 24.7905 28.9931 24.1873 28.5759L22.2148 27.2116C21.4744 26.5971 21.1783 26.136 21.1783 25.5215ZM18.5292 17.257C18.1668 17.257 17.8731 17.5961 17.8731 18.0145V21.0244C17.8731 21.6533 20.0003 22.4538 20.0003 22.4538C20.0003 22.4538 22.1276 21.6533 22.1276 21.0244V18.0145C22.1276 17.5961 21.8338 17.257 21.4715 17.257H18.5292Z" fill="white"/>
</svg>
