<svg width="40" height="40" viewBox="0 0 40 40" fill="none" xmlns="http://www.w3.org/2000/svg">
<path d="M21.3507 18.8677H18.5715L19.9739 14.7587H20.0259L21.3507 18.8677Z" fill="white"/>
<path fill-rule="evenodd" clip-rule="evenodd" d="M32.4331 10.4261C32.4331 11.1794 32.4331 11.9328 32.4686 12.722C32.6107 20.2915 32.7883 30.5874 20.3558 34.9282L20.0006 35L19.6454 34.9282C7.19537 30.5937 7.38982 20.2856 7.53188 12.7548L7.5325 12.722C7.56802 11.9327 7.56802 11.1794 7.56802 10.426C7.56802 9.81614 8.0298 9.34978 8.63367 9.34978C13.0739 9.34978 16.4484 8.0583 19.2546 5.29596C19.6809 4.90135 20.3203 4.90135 20.7465 5.29596C23.5527 8.0583 26.9273 9.34978 31.3675 9.34978C31.9713 9.34978 32.4331 9.81624 32.4331 10.4261ZM15 25.4519V27.5H25V25.4519H15ZM24.7663 22.6694L21.8177 14.0002C21.5326 13.1621 21.2039 12.5 20.0779 12.5C18.9518 12.5 18.6021 13.1594 18.302 14.0002L15.2078 22.6694H17.2597L17.9741 20.6085H21.922L22.5843 22.6694H24.7663Z" fill="white"/>
</svg>
