<svg width="64" height="64" viewBox="0 0 64 64" fill="none" xmlns="http://www.w3.org/2000/svg">
<path d="M1.04038 16.421C2.20457 8.28708 8.28708 2.20456 16.421 1.04038C20.5731 0.446119 25.7661 0 32 0C38.2339 0 43.4269 0.446119 47.579 1.04038C55.7129 2.20456 61.7954 8.28708 62.9596 16.421C63.5539 20.5731 64 25.7661 64 32C64 38.2339 63.5539 43.4269 62.9596 47.579C61.7954 55.7129 55.7129 61.7954 47.579 62.9596C43.4269 63.5539 38.2339 64 32 64C25.7661 64 20.5731 63.5539 16.421 62.9596C8.28708 61.7954 2.20456 55.7129 1.04038 47.579C0.446119 43.4269 0 38.2339 0 32C0 25.7661 0.446119 20.5731 1.04038 16.421Z" fill="white" fill-opacity="0.1"/>
<g clip-path="url(#clip0_3164_39101)">
<path d="M29.8609 23.9217C29.64 24.4948 29.4411 25.1297 29.2699 25.8254C29.219 26.0326 29.3776 26.2303 29.5909 26.2303H34.4088C34.6221 26.2303 34.7807 26.0326 34.7297 25.8254C34.5586 25.1297 34.3597 24.4948 34.1388 23.9217C33.5692 22.4439 32.8805 21.4411 32.1997 20.8339C32.0854 20.732 31.9143 20.732 31.8 20.8339C31.1192 21.4411 30.4305 22.4439 29.8609 23.9217Z" fill="white"/>
<path d="M22.7554 26.2303C22.4999 26.2303 22.3408 25.9552 22.4778 25.7395C23.78 23.6905 25.7027 22.0884 27.9751 21.2092C28.2611 21.0986 28.514 21.4165 28.3729 21.6888C28.1477 22.1235 27.94 22.5879 27.7509 23.0785C27.4179 23.9426 27.1352 24.9055 26.9119 25.9622C26.879 26.1179 26.7424 26.2303 26.5834 26.2303L22.7554 26.2303Z" fill="white"/>
<path d="M21.4314 28.5383C21.2851 28.5383 21.1555 28.6335 21.1153 28.7741C20.8231 29.798 20.6665 30.8805 20.6665 32.0003C20.6665 33.1201 20.8231 34.2026 21.1153 35.2265C21.1555 35.3671 21.2851 35.4623 21.4314 35.4623L26.1386 35.4623C26.3366 35.4623 26.4909 35.2907 26.4724 35.0935C26.3811 34.119 26.3332 33.087 26.3332 32C26.3332 30.9133 26.3811 29.8814 26.4724 28.9071C26.4908 28.7099 26.3366 28.5383 26.1385 28.5383H21.4314Z" fill="white"/>
<path d="M43.3332 32.0003C43.3332 33.089 43.1851 34.1425 42.9084 35.1411L38.7053 31.2066C38.4048 30.9253 38.0328 30.75 37.6426 30.69C37.6199 30.076 37.5811 29.4816 37.5273 28.9071C37.5089 28.7099 37.6631 28.5383 37.8611 28.5383L42.5683 28.5383C42.7146 28.5383 42.8442 28.6335 42.8843 28.7741C43.1765 29.798 43.3332 30.8805 43.3332 32.0003Z" fill="white"/>
<path d="M35.6268 21.6888C35.4857 21.4165 35.7386 21.0986 36.0246 21.2092C38.297 22.0884 40.2197 23.6905 41.5218 25.7395C41.6589 25.9552 41.4998 26.2303 41.2442 26.2303L37.4163 26.2303C37.2573 26.2303 37.1206 26.1179 37.0878 25.9622C36.8645 24.9055 36.5818 23.9426 36.2488 23.0785C36.0597 22.5879 35.852 22.1235 35.6268 21.6888Z" fill="white"/>
<path d="M29.0872 28.5383C28.918 28.5383 28.7754 28.6651 28.7578 28.8334C28.6555 29.8111 28.5998 30.8671 28.5998 32C28.5998 33.1332 28.6555 34.1894 28.7579 35.1672C28.7755 35.3355 28.9181 35.4623 29.0873 35.4623H34.9124C35.0816 35.4623 35.2242 35.3355 35.2418 35.1672C35.3442 34.1894 35.3998 33.1332 35.3998 32C35.3998 30.8671 35.3442 29.8111 35.2419 28.8334C35.2243 28.6651 35.0817 28.5383 34.9124 28.5383H29.0872Z" fill="white"/>
<path d="M34.1388 40.0784C34.3597 39.5053 34.5586 38.8703 34.7297 38.1746C34.7807 37.9674 34.6221 37.7697 34.4088 37.7697H29.5909C29.3776 37.7697 29.219 37.9674 29.27 38.1746C29.4411 38.8703 29.64 39.5053 29.8609 40.0784C30.4305 41.5561 31.1192 42.559 31.8 43.1661C31.9143 43.2681 32.0854 43.2681 32.1997 43.1661C32.8805 42.559 33.5692 41.5561 34.1388 40.0784Z" fill="white"/>
<path d="M22.7555 37.6667C22.4999 37.6667 22.3408 37.9418 22.4778 38.1575C23.78 40.2066 25.7027 41.8086 27.9751 42.6878C28.2611 42.7985 28.514 42.4805 28.3729 42.2082C28.1477 41.7735 27.94 41.3092 27.7509 40.8185C27.4179 39.9544 27.1352 38.9915 26.9119 37.9348C26.8791 37.7792 26.7424 37.6667 26.5834 37.6667H22.7555Z" fill="white"/>
<path d="M44.771 39.6243C44.9841 39.8238 44.856 40.1814 44.5647 40.2002L42.4539 40.3368C42.224 40.3517 42.0781 40.5898 42.1693 40.8014L43.2769 43.3718C43.3491 43.5393 43.2733 43.7337 43.1067 43.8081L41.4924 44.529C41.3228 44.6047 41.1239 44.5272 41.0504 44.3565L39.9509 41.805C39.8584 41.5904 39.5796 41.535 39.4122 41.6981L37.8995 43.1716C37.6882 43.3774 37.3334 43.2276 37.3336 42.9326L37.3381 33.4348C37.3383 33.1432 37.6864 32.9923 37.8993 33.1916L44.771 39.6243Z" fill="white"/>
</g>
<defs>
<clipPath id="clip0_3164_39101">
<rect width="32" height="32" fill="white" transform="translate(16 16)"/>
</clipPath>
</defs>
</svg>
