<svg width="40" height="40" viewBox="0 0 40 40" fill="none" xmlns="http://www.w3.org/2000/svg">
<path d="M16.7111 10C16.1988 10 15.7419 10.3321 15.5696 10.8296L13.4051 17.0796C13.3564 17.22 13.3336 17.3617 13.3334 17.5C13.3326 18.1636 13.8529 18.75 14.5466 18.75H25.4536C26.1472 18.75 26.6676 18.1636 26.6668 17.5C26.6666 17.3617 26.6437 17.22 26.5951 17.0796L24.4306 10.8296C24.2583 10.3321 23.8014 10 23.2891 10H16.7111Z" fill="white"/>
<path d="M23.6006 21.25C23.0883 21.25 22.6314 21.5821 22.4591 22.0796L20.5819 27.5H19.4183L17.5411 22.0796C17.3688 21.5821 16.9119 21.25 16.3996 21.25H10.0444C9.53214 21.25 9.07518 21.5821 8.90289 22.0796L6.73839 28.3296C6.68976 28.47 6.66693 28.6117 6.66675 28.75C6.66588 29.4136 7.18626 30 7.8799 30L32.1203 30C32.8139 30 33.3343 29.4136 33.3334 28.75C33.3332 28.6117 33.3104 28.47 33.2618 28.3296L31.0973 22.0796C30.925 21.5821 30.468 21.25 29.9558 21.25L23.6006 21.25Z" fill="white"/>
</svg>
